<svg width="16" height="16" viewBox="0 0 16 16" fill="none" xmlns="http://www.w3.org/2000/svg">
<circle cx="5.5" cy="5.5" r="5.5" fill="#D95B46"/>
<circle cx="10.5" cy="10.5" r="5.5" fill="#1D3426"/>
<path d="M6.60348 13.1066C6.38561 12.7117 6.11327 12.2351 6.11327 11.2547C6.11327 9.82492 6.68518 8.58577 7.57029 7.19684L8.89114 10.0428C9.3405 11.0232 9.80348 12.5347 9.80348 13.1066H11.5465C10.9473 12.1943 10.2665 10.8734 9.74901 9.75684L8.16944 6.35258C9.44944 4.70492 10.8384 3.83343 11.4511 3.57471H9.46305C9.17709 4.78662 8.40093 5.50832 7.47497 6.92449C6.6988 8.13641 5.81369 9.85216 5.03752 12.8343C5.4188 10.9551 5.67752 7.67343 5.99071 5.09981C6.08603 4.32364 6.35837 3.83343 6.65795 3.57471H4.53369C4.88773 4.03769 5.16007 4.96364 5.16007 6.39343V10.3015C5.16007 11.7177 4.88773 12.6436 4.53369 13.1066H6.60348Z" fill="#E2D9CC"/>
</svg>
