<?xml version="1.0" standalone="no"?>
<!DOCTYPE svg PUBLIC "-//W3C//DTD SVG 1.1//EN" "http://www.w3.org/Graphics/SVG/1.1/DTD/svg11.dtd" >
<svg xmlns="http://www.w3.org/2000/svg" xmlns:xlink="http://www.w3.org/1999/xlink" version="1.1">
<metadata></metadata>
<defs>
<font id="dahliaregular" horiz-adv-x="1452" >
<font-face units-per-em="2048" ascent="1638" descent="-410" />
<missing-glyph horiz-adv-x="471" />
<glyph horiz-adv-x="0" />
<glyph horiz-adv-x="682" />
<glyph unicode=" "  horiz-adv-x="471" />
<glyph unicode="&#x09;" horiz-adv-x="471" />
<glyph unicode="&#xa0;" horiz-adv-x="471" />
<glyph unicode="!" horiz-adv-x="409" d="M102 78q0 43 31 73.5t74 30.5q44 0 72 -30t28 -74q0 -42 -28.5 -72.5t-71.5 -30.5t-74 31t-31 72zM129 1434h152q-23 -79 -39 -385l-33 -715h-8l-33 715q-7 136 -17 232.5t-16 124.5z" />
<glyph unicode="&#x22;" horiz-adv-x="428" d="M61 1434h127q-41 -275 -51 -433l-10 -153h-4l-10 153q-4 70 -17 178.5t-24 181.5zM240 1434h127q-42 -275 -52 -433l-10 -153h-4l-10 153q-4 70 -17 178.5t-24 181.5z" />
<glyph unicode="#" horiz-adv-x="1495" d="M51 418l23 80q37 0 137 -12.5t192 -18.5q17 59 51 168t48 158l49 174q-215 -10 -332 -13l23 80q38 0 135.5 -12t183.5 -18q79 298 103 491h81q-84 -273 -155 -494q168 -8 323 -8q63 0 177 4q78 287 104 498h82q-33 -108 -86.5 -275.5t-69.5 -220.5q285 12 324 13l-23 -78 q-21 0 -62 4.5t-111 12t-140 12.5l-61 -197q-58 -189 -89 -303q244 11 318 12l-23 -78q-20 0 -60 4.5t-108 12t-137 12.5q-65 -233 -100 -504h-84q26 84 79 253t79 253q-164 8 -295 8q-69 0 -209 -4q-42 -155 -62 -260.5t-39 -249.5h-84q35 117 95 308.5t63 199.5 q-165 -7 -340 -12zM428 465q164 -8 317 -8q65 0 187 4l92 305l57 199q-160 8 -286 8q-110 0 -215 -6l-56 -172q-44 -142 -96 -330z" />
<glyph unicode="$" horiz-adv-x="999" d="M12 573h4q59 -276 170 -409t291 -152q18 503 19 645l-25 13q-50 24 -79 38.5t-74 38.5t-72 43.5t-61.5 46.5t-55 54t-40 59.5t-28 70t-8.5 79.5q0 151 120.5 246.5t299.5 103.5q-6 117 -6 143h72q0 -10 -7 -143q122 -3 201.5 -23t153.5 -55l45 -389h-4q-50 168 -159 289 t-237 149q-13 -332 -18 -602q3 -1 9 -4t9 -4q87 -41 133 -64.5t117 -70t107.5 -89.5t65 -108t28.5 -139q0 -153 -121 -250t-330 -106q7 -168 7 -181h-72q0 7 1 30t3 67.5t4 83.5q-225 2 -428 84zM162 1157q0 -39 11.5 -73.5t36 -64.5t52 -54t70 -49.5t77.5 -43.5t87 -43 q-3 140 -21 601h-10q-119 0 -211 -78t-92 -195zM514 649q2 -251 16 -641h15q61 0 118 16t104.5 47t76 84t28.5 121q0 54 -20.5 102.5t-50.5 83.5t-82 71.5t-95 60t-110 55.5z" />
<glyph unicode="%" horiz-adv-x="1411" d="M82 846q0 90 42 174.5t117 139t162 54.5q120 0 201.5 -86t81.5 -239q0 -162 -95.5 -265.5t-225.5 -103.5q-120 0 -201.5 86.5t-81.5 239.5zM176 33q93 104 275.5 305.5t253.5 282.5q195 224 293 348.5t161 226.5l76 -31q-121 -135 -289.5 -317t-222.5 -244 q-215 -245 -300 -354t-171 -250zM176 932q0 -85 30.5 -171.5t89 -147t128.5 -60.5q76 0 122 70t46 180q0 85 -30.5 171.5t-89 147t-128.5 60.5q-76 0 -122 -70t-46 -180zM725 309q0 67 25.5 133.5t68 118.5t103 84.5t125.5 32.5q120 0 201 -86.5t81 -239.5 q0 -162 -95.5 -265t-225.5 -103q-120 0 -201.5 86t-81.5 239zM819 395q0 -85 30.5 -171.5t89 -147t128.5 -60.5q76 0 122 70t46 180q0 85 -30.5 171.5t-89 147t-128.5 60.5q-76 0 -122 -70t-46 -180z" />
<glyph unicode="&#x26;" horiz-adv-x="1327" d="M25 453q0 127 62 236.5t170 174t235 64.5q54 0 124 -17q-216 96 -319.5 181.5t-103.5 197.5q0 71 44.5 115.5t114.5 44.5q73 0 208 -19t224 -24v-197q-251 217 -389 217q-43 0 -68.5 -22t-25.5 -57q0 -53 34 -114.5t83.5 -115t117 -109t122 -94t110.5 -73.5 q126 -79 242 -224t193 -308t104 -310h-152q-5 95 -68.5 304t-166.5 358q47 -94 47 -207q0 -130 -65.5 -239t-173.5 -170.5t-232 -61.5q-127 0 -235.5 62t-172 170t-63.5 237zM139 549q0 -119 51 -224.5t146 -171t211 -65.5q103 0 193.5 55t144 147t53.5 197 q0 174 -130.5 297t-313.5 123q-166 0 -260.5 -98.5t-94.5 -259.5z" />
<glyph unicode="'" horiz-adv-x="249" d="M61 1434h127q-41 -275 -51 -433l-10 -153h-4l-10 153q-4 70 -17 178.5t-24 181.5z" />
<glyph unicode="(" horiz-adv-x="401" d="M41 696q0 159 26.5 304t66.5 246.5t90 184t93 128t80 67.5l4 -14q-51 -41 -95.5 -112.5t-83.5 -180t-62 -269.5t-23 -354q0 -194 23 -354.5t62 -268.5t83.5 -179t95.5 -113l-4 -17q-37 22 -80 68t-93 128.5t-90 184t-66.5 247t-26.5 304.5z" />
<glyph unicode=")" horiz-adv-x="401" d="M0 -219q51 42 95.5 113t83.5 179t62 268.5t23 354.5q0 193 -23 354t-62 269.5t-83.5 180t-95.5 112.5l4 14q37 -22 80 -67.5t93 -128t90 -184t66.5 -246.5t26.5 -304t-26.5 -304.5t-66.5 -247t-90 -184t-93 -128.5t-80 -68z" />
<glyph unicode="*" horiz-adv-x="667" d="M61 1087q62 -8 148 27l113 45l-113 45q-38 16 -75 22.5t-55 5.5l-18 -1l62 115q3 -6 9.5 -17t33 -39.5t61.5 -52.5l103 -70l-15 123q-4 41 -16 77t-21 51l-10 16h131q-37 -52 -47 -144l-14 -123l102 70q35 24 61 51t35 42l9 16l61 -115q-61 8 -147 -27l-113 -45l113 -45 q38 -16 75 -22.5t54 -5.5l18 1l-61 -114q-3 6 -9.5 16.5t-33.5 39t-62 52.5l-102 70l14 -123q4 -41 16 -76.5t22 -51.5l9 -15h-131q37 51 47 143l15 123l-103 -70q-35 -24 -61 -51t-34 -42l-9 -15z" />
<glyph unicode="+" horiz-adv-x="1089" d="M102 621v36q295 -10 435 -10q0 109 -11 434h37q-10 -295 -10 -434q139 0 434 10v-36q-295 10 -434 10q0 -139 10 -434h-37q11 324 11 434q-140 0 -435 -10z" />
<glyph unicode="," horiz-adv-x="327" d="M-49 -256q89 23 163 79.5t74 113.5q0 9 -2.5 14.5t-11 11t-15.5 8.5t-26 11q-30 12 -51 37t-21 59q0 43 31 73.5t74 30.5q44 0 72 -31t28 -81q0 -124 -96.5 -220.5t-218.5 -107.5v2z" />
<glyph unicode="-" horiz-adv-x="991" d="M102 537v71q1 0 130 -9t264 -9t263.5 9t129.5 9v-71q-1 0 -129.5 10t-263.5 10t-264 -10t-130 -10z" />
<glyph unicode="." horiz-adv-x="327" d="M61 78q0 43 31 73.5t74 30.5q44 0 72 -30t28 -74q0 -42 -28.5 -72.5t-71.5 -30.5t-74 31t-31 72z" />
<glyph unicode="/" horiz-adv-x="825" d="M-164 -567q33 70 239 536.5t232 526.5q96 206 174.5 399.5t116.5 298t121 340.5l65 -27q-22 -48 -136 -305t-222 -502t-113 -256q-73 -157 -128 -285.5t-111.5 -278.5t-79.5 -213.5t-92 -260.5z" />
<glyph unicode="0" horiz-adv-x="1241" d="M25 717q0 151 51 288t136 234t197.5 154t231.5 57q137 0 247.5 -59t181.5 -160.5t109 -233t38 -280.5q0 -151 -51.5 -288t-136 -234t-197.5 -154t-232 -57q-137 0 -247.5 59t-181 160.5t-108.5 233t-38 280.5zM123 840q0 -113 27 -227t79 -214t121.5 -178t160.5 -123 t189 -45q100 0 180.5 43t131.5 117.5t78.5 171.5t27.5 207q0 142 -43.5 283t-118 253t-183 182t-228.5 70q-136 0 -233 -74.5t-143 -194.5t-46 -271z" />
<glyph unicode="1" horiz-adv-x="479" d="M0 1137q128 55 212.5 125.5t152.5 187.5v-1026q0 -300 94 -424h-316q95 125 95 424v704q0 58 -27 58q-6 0 -18 -4l-187 -60z" />
<glyph unicode="2" horiz-adv-x="983" d="M10 0l13 63q57 287 352 576q223 217 286 289q112 126 134 224q8 34 8 71q0 90 -63 143t-162 53q-167 0 -284.5 -123t-158.5 -321h-10v344q179 67 309 99t256 32q117 0 189.5 -62.5t72.5 -177.5q0 -79 -41.5 -161.5t-110 -156.5t-153 -148.5t-175 -150t-171 -148.5 t-146 -155t-94.5 -159h580q110 0 174.5 11.5t114.5 41.5v-184h-920z" />
<glyph unicode="3" horiz-adv-x="845" d="M41 1249v185h694l-438 -418q119 -8 230 -52.5t194.5 -124t101 -191.5t-50.5 -255q-44 -87 -130 -159.5t-177 -114t-175.5 -70t-139.5 -39.5l-54 -10l-10 8q61 17 128 44t142.5 71t138 96t110.5 122t63 144q21 101 -11 182t-105.5 132.5t-173.5 79.5t-220 32l407 392h-217 q-133 0 -192 -11.5t-115 -42.5z" />
<glyph unicode="4" horiz-adv-x="987" d="M0 424v20q138 199 306.5 540t168.5 450h203q-12 -22 -63 -117t-77 -142.5t-87 -148t-114.5 -178.5t-135 -187t-172.5 -217h497v314q33 23 70.5 59t52.5 60v-426q109 15 194.5 60t133.5 89v-176h-328v-57q0 -78 9.5 -144.5t23 -106t27 -67.5t23.5 -39l9 -10h-305 q4 4 10 11.5t21.5 36.5t27.5 65.5t21.5 100t9.5 136.5v74h-526z" />
<glyph unicode="5" horiz-adv-x="776" d="M10 8q82 23 162.5 57.5t159.5 86t138.5 111.5t96.5 138.5t37 161.5q0 167 -144.5 257.5t-389.5 90.5l49 324q9 75 4.5 112t-25.5 87h543v-185q-50 30 -111 42t-161 12h-219l-41 -269q184 -1 330 -52.5t231.5 -149t85.5 -224.5q0 -71 -22.5 -139.5t-77 -140t-136 -132 t-209.5 -112.5t-288 -84z" />
<glyph unicode="6" horiz-adv-x="1064" d="M25 567q0 181 70 345t188.5 281.5t281.5 187t342 69.5v-10q-135 0 -255 -49t-209 -134.5t-151.5 -198t-90.5 -241.5q43 69 140 117.5t194 48.5t187.5 -33.5t162.5 -96t115.5 -160.5t43.5 -218q0 -108 -41.5 -201t-110.5 -156t-161 -98.5t-192 -35.5q-147 0 -265.5 79 t-183.5 212t-65 292zM178 616q0 -150 57.5 -289t156 -226t208.5 -87q142 0 226.5 117.5t84.5 284.5q0 134 -59 257.5t-158.5 200t-210.5 76.5q-91 0 -172 -55.5t-118 -118.5q-15 -80 -15 -160z" />
<glyph unicode="7" horiz-adv-x="851" d="M41 1249v185h795l-76 -134q-256 -454 -342 -733q-91 -294 -99 -567h-215q222 626 500 1077l139 226h-413q-109 0 -174 -12t-115 -42z" />
<glyph unicode="8" horiz-adv-x="1042" d="M20 381q0 84 31 157t71.5 118.5t96 83t88.5 53t64 26.5q-91 58 -140 131t-49 180q0 138 101 229t249 91q140 0 241 -80.5t101 -218.5q0 -104 -68.5 -184t-164.5 -127q67 -30 113 -54t101 -63.5t88 -81.5t56 -102t23 -131q0 -79 -29.5 -151.5t-87 -133.5t-154.5 -98.5 t-221 -40.5q-93 -2 -181.5 21t-163 70t-120 126.5t-45.5 179.5zM166 424q12 -181 132 -296.5t277 -115.5q86 0 153.5 25t108.5 67.5t63 94t26 110.5q3 58 -12.5 108.5t-43 88t-71 73t-85.5 60t-98 51.5q-148 70 -223 115q-84 -15 -159.5 -128.5t-67.5 -252.5zM236 1180 q0 -48 19 -89t49 -71t77 -58t92 -49t105 -47q25 -10 38 -16q74 52 106 126.5t32 145.5q0 120 -76 210.5t-197 90.5q-87 0 -166 -70.5t-79 -172.5z" />
<glyph unicode="9" horiz-adv-x="1064" d="M20 958q0 143 71 257t186 174.5t249 60.5q147 0 265.5 -79.5t183.5 -212.5t65 -292q0 -145 -44.5 -280t-126.5 -243.5t-190.5 -189.5t-243 -125t-277.5 -44v10q135 0 255 49t209 134t151.5 197.5t90.5 241.5q-43 -69 -140 -117t-194 -48t-187.5 33.5t-163 95.5 t-116 160.5t-43.5 217.5zM154 1018q0 -134 59 -258t158.5 -200.5t210.5 -76.5q91 0 172 55.5t118 118.5q15 79 15 160q0 150 -57.5 289t-156 226t-208.5 87q-142 0 -226.5 -117t-84.5 -284z" />
<glyph unicode=":" horiz-adv-x="368" d="M82 78q0 43 30.5 73.5t73.5 30.5q44 0 72.5 -30.5t28.5 -73.5q0 -42 -29 -72.5t-72 -30.5q-42 0 -73 30.5t-31 72.5zM82 647q0 43 30.5 74t73.5 31q44 0 72.5 -30.5t28.5 -74.5q0 -42 -29 -72t-72 -30t-73.5 30.5t-30.5 71.5z" />
<glyph unicode=";" horiz-adv-x="368" d="M-31 -256q89 23 163.5 79.5t74.5 113.5q0 9 -2.5 14.5t-11 11t-15.5 8.5t-26 11q-30 12 -51 37t-21 59q0 43 30.5 73.5t73.5 30.5q44 0 72.5 -31.5t28.5 -80.5q0 -124 -97 -220.5t-219 -107.5v2zM82 647q0 43 30.5 74t73.5 31q44 0 72.5 -30.5t28.5 -74.5q0 -42 -29 -72 t-72 -30t-73.5 30.5t-30.5 71.5z" />
<glyph unicode="&#x3c;" horiz-adv-x="888" d="M102 537v10q216 110 316 160q323 161 350 178l18 -33q-15 -7 -66.5 -31.5t-136.5 -64t-155 -72.5q-169 -79 -295 -141q139 -69 289 -140q72 -35 157.5 -75t139 -65t67.5 -32l-18 -32q-36 22 -356 180z" />
<glyph unicode="=" horiz-adv-x="1089" d="M102 481v37q305 -10 443 -10q137 0 442 10v-37q-335 11 -442 11t-443 -11zM102 760v37q336 -11 443 -11q106 0 442 11v-37q-305 10 -442 10q-138 0 -443 -10z" />
<glyph unicode="&#x3e;" horiz-adv-x="888" d="M102 231q14 7 68 32t139.5 65t157.5 75q150 70 289 140q-126 62 -295 141q-71 34 -155.5 73t-137 63.5t-66.5 31.5l19 33q27 -17 350 -178q68 -34 315 -160v-10l-309 -158q-320 -158 -356 -180z" />
<glyph unicode="?" horiz-adv-x="884" d="M61 1008v344q71 43 189.5 70.5t216.5 27.5q77 0 141.5 -11.5t119 -36t85.5 -69.5t31 -106q0 -53 -33 -110.5t-86 -110.5t-117 -108.5t-128 -113t-117 -115.5t-86 -125t-33 -132q0 -43 10 -88l-18 -2q-11 56 -11 94q0 60 21.5 120t57.5 112.5t80.5 104.5t91.5 105.5 t89 106.5t76 116t49 125q13 51 3.5 88.5t-31 63.5t-54.5 42t-66 23t-67 7q-61 0 -117 -26.5t-98.5 -67.5t-81.5 -99.5t-65 -112.5t-50 -116h-2zM164 78q0 43 30.5 73.5t73.5 30.5q44 0 72.5 -30.5t28.5 -73.5q0 -42 -29 -72.5t-72 -30.5q-42 0 -73 30.5t-31 72.5z" />
<glyph unicode="@" horiz-adv-x="1327" d="M27 522q0 130 50.5 248t136.5 203t204 135.5t248 50.5t248 -50.5t203 -135.5t135.5 -203t50.5 -248q0 -125 -54 -248q-11 -31 -37.5 -63t-62.5 -43q-25 -6 -38.5 -5.5t-53.5 9.5q-26 6 -139 6l-48 133q-46 -72 -106 -108t-152 -37q-121 0 -198.5 71.5t-77.5 190.5 q0 126 83 230.5t234 175.5q-32 -22 -64 -52.5t-68 -75.5t-58.5 -104t-22.5 -119q0 -116 61 -185t167 -69q56 -3 110 21t88 74q-165 488 -200 544q-26 48 -81 60t-104 -6l-4 2q56 41 139 41q111 0 160 -115q18 -40 115.5 -305t107.5 -283q59 -102 144 -78q48 12 92 97 q47 121 47 241q0 125 -49 239.5t-131.5 197t-196.5 131.5t-239 49q-168 0 -310.5 -82.5t-225.5 -225t-83 -309.5q0 -168 83 -310.5t225.5 -225t310.5 -82.5q141 0 262 59l2 -20q-126 -60 -264 -60q-130 0 -248 50.5t-204 136.5t-136.5 204t-50.5 248z" />
<glyph unicode="A" horiz-adv-x="1140" d="M10 0q64 124 133 348q34 112 67 214t58.5 177t52 144.5t44 113.5t37 88.5t29 64t22.5 46t14 29.5v209h63l324 -848q151 -399 276 -586h-276q0 76 -3 114t-24.5 122t-68.5 210l-99 261h-358q-72 -284 -72 -549q0 -65 7 -158h-226zM305 727h348l-176 469 q-102 -200 -172 -469z" />
<glyph unicode="B" horiz-adv-x="1138" d="M20 0q95 125 95 424v586q0 299 -95 424h476q462 0 462 -238q0 -72 -52.5 -130.5t-164.5 -135.5q67 -13 133 -50t123 -94t92 -141.5t35 -181.5q0 -142 -83 -248.5t-223 -160.5t-314 -54h-484zM115 98q104 308 199.5 458t310.5 343q180 162 180 303q0 95 -81.5 153 t-266.5 58q-113 0 -169 -41t-65 -139q-4 -51 -18.5 -219t-21.5 -244t-19.5 -209.5t-24 -243.5t-24.5 -219zM260 274q0 -68 13.5 -124.5t48.5 -129.5h163q119 0 209.5 32.5t141 80.5t82 113.5t41.5 120.5t10 112q0 83 -22.5 158.5t-59 130t-76 93t-80.5 61.5 q-172 -122 -237 -187q-104 -101 -169 -220.5t-65 -240.5z" />
<glyph unicode="C" horiz-adv-x="1415" d="M20 711q0 152 60.5 289.5t162.5 235.5t242 156t293 58q261 0 516 -160v-350h-4q-61 229 -216 349t-382 120q-162 0 -284 -80t-186 -219.5t-64 -318.5q0 -140 48.5 -270t135 -229.5t215.5 -159.5t279 -60q69 0 146.5 21.5t155.5 62.5t146 113t107 163h8 q-19 -55 -55 -113.5t-94.5 -119t-129.5 -108t-167 -77.5t-199 -30q-148 0 -284 57.5t-234.5 155t-157 232t-58.5 282.5z" />
<glyph unicode="D" horiz-adv-x="1150" d="M20 0q95 125 95 424v586q0 299 -95 424h297q373 0 593 -196.5t220 -518.5q0 -324 -217.5 -521.5t-584.5 -197.5h-308zM244 20h84q124 0 239 46t207 131.5t147.5 221t55.5 300.5q0 132 -37 245.5t-101 195t-148 139.5t-179.5 86t-194.5 28h-73v-1393z" />
<glyph unicode="E" horiz-adv-x="880" d="M20 0q95 125 95 424v586q0 299 -95 424h775l8 -217h-4q-63 82 -174.5 139t-208.5 57q-81 0 -130.5 -46t-49.5 -138q0 -121 88.5 -197t263.5 -76h121v-188h-2q-188 145 -324 205q-71 31 -139 39v-989q100 11 178 24t171.5 35t163.5 57t109 80l-8 -219h-838z" />
<glyph unicode="F" horiz-adv-x="819" d="M20 0q95 125 95 424v586q0 299 -95 424h775l8 -217h-4q-63 82 -174.5 139t-208.5 57q-81 0 -130.5 -46t-49.5 -138q0 -121 88.5 -197t263.5 -76h121v-188h-2q-188 145 -324 205q-71 31 -139 39v-588q0 -296 94 -424h-318z" />
<glyph unicode="G" horiz-adv-x="1460" d="M20 709q0 154 61.5 292.5t165 236t242.5 155t289 57.5q261 0 516 -160v-350h-4q-149 469 -598 469q-164 0 -286 -80t-185 -218.5t-63 -315.5q0 -185 97 -355.5t263 -276.5t352 -106q107 0 208.5 47.5t169 137t67.5 198.5q0 14 -1 26t-2 22t-5.5 27t-7 27.5t-11.5 37.5 t-14.5 44t-19 59t-23.5 71h168v-754h-13q-6 157 -43 356q-15 -50 -45 -99.5t-80.5 -99.5t-114 -88t-151.5 -61.5t-188 -23.5q-202 0 -373 97t-271 264t-100 364z" />
<glyph unicode="H" horiz-adv-x="1138" d="M20 0q95 125 95 424v586q0 299 -95 424h318q-94 -124 -94 -424v-162h651v162q0 300 -94 424h317q-94 -124 -94 -424v-586q0 -300 94 -424h-317q94 124 94 424v403h-651v-403q0 -300 94 -424h-318z" />
<glyph unicode="I" horiz-adv-x="317" d="M20 0q74 98 74 424v586q0 326 -74 424h277q-74 -98 -74 -424v-586q0 -326 74 -424h-277z" />
<glyph unicode="J" horiz-adv-x="401" d="M16 -193q6 4 16 12t35 45t44 87.5t35 145t16 210.5v703q0 300 -94 424h317q-94 -124 -94 -424v-703q0 -69 -9.5 -130.5t-25 -107t-36 -85t-43 -66t-44.5 -47.5t-42.5 -33.5t-36 -20.5t-24.5 -11l-10 -3z" />
<glyph unicode="K" horiz-adv-x="1089" d="M20 0q95 125 95 422v588q0 299 -95 424h320q-81 -70 -100 -230q-15 -122 -43 -387.5t-52 -457.5t-49 -318q139 535 367 889q40 61 121.5 172t120 180.5t57.5 151.5h299q-92 -39 -228.5 -146t-265.5 -272l238 -512q147 -317 270 -504h-262q0 64 -42.5 206.5t-94.5 254.5 l-199 428q-109 -171 -164 -314.5t-55 -295.5q0 -68 13 -126.5t25.5 -85t35.5 -67.5h-312z" />
<glyph unicode="L" horiz-adv-x="878" d="M20 0q95 125 95 424v586q0 299 -95 424h318q-94 -124 -94 -424v-985q98 10 177.5 22.5t171.5 34.5t162 57t109 80l-8 -219h-836z" />
<glyph unicode="M" horiz-adv-x="1488" d="M14 0q124 262 156 709l39 565l-62 160h152l475 -1213l445 1213h190l-82 -144l51 -866q16 -269 97 -424h-301q72 108 72 331q0 44 -3 93l-45 764q-133 -249 -215 -471l-209 -563v-154h-67l-478 1225l-36 -516q-8 -110 -8 -209q0 -306 75 -500h-246z" />
<glyph unicode="N" horiz-adv-x="1079" d="M14 1434h164l768 -1237v659q0 255 -36.5 394.5t-78.5 183.5h232q-35 -43 -64.5 -182.5t-29.5 -395.5v-856h-78l-754 1233v-655q0 -255 36.5 -394.5t78.5 -183.5h-232q35 43 65 182.5t30 395.5v692z" />
<glyph unicode="O" d="M20 725q0 200 93.5 367t253.5 262.5t350 95.5q197 0 361 -96t259 -265.5t95 -375.5q0 -201 -93.5 -369t-253.5 -264t-350 -96q-197 0 -361 96.5t-259 267t-95 377.5zM143 834q0 -203 93.5 -388t255 -300t344.5 -115q107 0 197 45.5t150 123.5t93 181.5t33 220.5 q0 204 -94 389.5t-255 299.5t-344 114q-142 0 -251.5 -78t-165.5 -207t-56 -286z" />
<glyph unicode="P" horiz-adv-x="972" d="M20 0q95 125 95 424v586q0 299 -95 424h476q462 0 462 -238q0 -56 -29 -105.5t-79.5 -89.5t-103 -73.5t-114.5 -75.5t-100 -78q-179 -157 -234 -377q-20 -81 -20 -156q0 -129 60 -241h-318zM115 98q95 279 189.5 432t207.5 258q122 112 167 163q125 143 126 251 q0 95 -81.5 153t-266.5 58q-113 0 -168 -41t-64 -139q-5 -56 -23 -271.5t-27 -310.5t-26 -258t-34 -295z" />
<glyph unicode="Q" d="M20 731q0 198 92 363.5t250 260.5t347 95q195 0 357.5 -97t255.5 -263.5t93 -364.5q0 -397 -336 -619l-2 9q24 18 46 37.5t56 62.5t57.5 92t41.5 125.5t18 163.5q0 149 -55 296t-146.5 260t-220 183t-266.5 70q-141 0 -248.5 -77t-163 -205.5t-55.5 -284.5 q0 -303 178 -520.5t459 -278.5q92 -21 193 -21q51 0 122.5 7.5t94.5 7.5q110 0 197.5 -40.5t140.5 -88.5l-135 -113q-28 42 -52.5 71.5t-64 65.5t-91 55t-110.5 19q-23 0 -102.5 -9t-206.5 -9q-210 0 -381 99.5t-267 270.5t-96 377z" />
<glyph unicode="R" horiz-adv-x="1052" d="M20 0q95 125 95 424v586q0 299 -95 424h476q462 0 462 -238q0 -40 -16 -77.5t-39 -65t-62.5 -59t-71 -52t-80.5 -52t-77 -50.5l156 -338q116 -252 270 -502h-262q0 67 -41 211t-92 252l-135 289q-162 -158 -211 -370q-17 -75 -17 -144q0 -128 58 -238h-318zM115 98 q95 279 189.5 432t207.5 258q122 112 167 163q125 143 126 251q0 95 -81.5 153t-266.5 58q-113 0 -168 -41t-64 -139q-5 -56 -23 -271.5t-27 -310.5t-26 -258t-34 -295z" />
<glyph unicode="S" horiz-adv-x="999" d="M12 573h4q65 -301 191 -433t338 -132q61 0 118 16t104.5 47t76 84t28.5 121q0 33 -8 64t-19 56t-33 51t-40 44.5t-51.5 41.5t-55.5 37t-63 35.5t-63.5 32t-67.5 32.5q-50 24 -79 38.5t-74 38.5t-72 43.5t-61.5 46.5t-55 54t-40 59.5t-28 70t-8.5 79.5q0 157 129 253.5 t316 96.5q138 0 223 -20t166 -58l45 -389h-4q-56 191 -186.5 319t-276.5 128q-119 0 -211 -78t-92 -195q0 -36 11.5 -69t27.5 -58.5t47 -53t56.5 -45.5t71 -42.5t74.5 -38.5t82 -39q87 -41 133 -64.5t117 -70t107.5 -89.5t65 -108t28.5 -139q0 -160 -131.5 -258t-357.5 -98 q-240 0 -447 84z" />
<glyph unicode="T" horiz-adv-x="1001" d="M4 1208l25 226h944l24 -226h-4q-74 99 -139 152t-145 53q-77 0 -111.5 -41t-34.5 -137l2 -811q0 -296 94 -424h-317q94 124 94 424v811q0 96 -34 137t-111 41q-55 0 -108.5 -31t-89.5 -70t-85 -104h-4z" />
<glyph unicode="U" horiz-adv-x="1128" d="M16 1434h318q-94 -124 -94 -424v-414q0 -132 22 -233.5t57 -161.5t85 -97.5t98 -51t104 -13.5q186 0 286.5 153.5t100.5 430.5v387q0 153 -41.5 263t-105.5 161h266q-94 -124 -94 -424v-387q0 -108 -11.5 -196t-43.5 -173t-83.5 -142.5t-136 -92.5t-196.5 -35 q-196 0 -316 152t-120 433v441q0 299 -95 424z" />
<glyph unicode="V" horiz-adv-x="1136" d="M10 1434h199q-8 -19 -8 -54v-14q2 -45 16 -84l395 -1071q170 336 244 666q61 274 62 477q0 41 -3 80h211q-26 -38 -48 -99.5t-47 -147t-44 -136.5q-67 -182 -187 -466.5t-188 -430.5v-154h-71z" />
<glyph unicode="W" horiz-adv-x="1679" d="M10 1434h199q-8 -19 -8 -54v-14q2 -45 16 -84l395 -1071q127 248 203 514l-262 709h199q-8 -19 -8 -54v-14q2 -45 16 -84l395 -1071q171 336 245 666q61 274 61 477q0 41 -3 80h211q-26 -38 -48 -99.5t-47 -147t-44 -136.5q-70 -186 -190.5 -472.5t-184.5 -424.5v-154 h-72l-247 670q-123 -296 -224 -516v-154h-71z" />
<glyph unicode="X" horiz-adv-x="1150" d="M10 0q42 21 86 60t74 90l334 550l-350 586q-54 91 -138 148h318q-29 -37 -29 -84q0 -32 21 -70l311 -520q70 141 140 298.5t85 225.5q6 40 6 72q0 45 -10 78h275q-38 -18 -83.5 -55.5t-78.5 -92.5l-324 -543l354 -593q31 -52 70.5 -92t69.5 -58h-312q25 32 25 76 q0 34 -23 76l-319 534q-5 -10 -32.5 -67t-40.5 -84.5t-39.5 -84t-42 -92t-34 -79t-28.5 -75t-14 -52.5q-9 -47 -9 -78q0 -48 11 -74h-273z" />
<glyph unicode="Y" horiz-adv-x="1167" d="M10 1434h256q-8 -19 -8 -56q0 -58 33 -131l348 -755q39 77 112 238.5t113 283.5q72 215 72 332q0 56 -16 88h237q-4 -5 -25.5 -26.5t-36 -41t-41 -59.5t-61 -107t-75.5 -158l-265 -583v-35q0 -299 95 -424h-322q91 122 94 410l-397 862q-56 120 -113 162z" />
<glyph unicode="Z" horiz-adv-x="1062" d="M10 0q67 72 158 227l582 998q30 53 30 90q0 49 -45 73.5t-125 24.5t-155.5 -20t-131 -51.5t-102.5 -72t-77 -78t-48 -73.5h-4l84 316h877q-25 -17 -60.5 -70t-97.5 -158l-553 -946q-57 -97 -57 -151q0 -89 166 -89h18q41 0 84 4t112 22t129.5 47.5t125 87t108.5 134.5h4 l-80 -315h-942z" />
<glyph unicode="[" horiz-adv-x="395" d="M143 -586q0 9 5 169t10.5 413t7.5 473q-2 221 -7.5 474.5t-10.5 413.5t-5 169h21q136 0 190 8v-64q-3 1 -30 9.5t-67 14t-93 3.5q17 -476 22 -1028q0 -106 -9.5 -528.5t-12.5 -497.5q53 -2 93 3.5t67 14t30 9.5v-64q-54 8 -190 8h-21z" />
<glyph unicode="\" horiz-adv-x="825" d="M41 1507l65 27q83 -236 121 -340.5t116.5 -298t174.5 -399.5q3 -6 222 -501.5t249 -561.5l-65 -27q-83 236 -121 340.5t-116.5 298t-174.5 399.5q-5 11 -113 256t-222 502t-136 305z" />
<glyph unicode="]" horiz-adv-x="395" d="M41 -530q3 -1 30 -9.5t67 -14t93 -3.5q-3 64 -8.5 484.5t-5.5 541.5q7 833 14 1028q-53 2 -93 -3.5t-67 -14t-30 -9.5v64q54 -8 190 -8h21q0 -12 -2.5 -169.5t-6 -412.5t-5.5 -475q2 -219 5.5 -474t6 -412t2.5 -169h-21q-136 0 -190 -8v64z" />
<glyph unicode="^" horiz-adv-x="700" d="M-4 1118q73 96 191.5 254t170.5 225q139 -176 363 -479l-4 -6q-67 75 -179.5 170.5t-179.5 130.5q-66 -34 -174 -127t-184 -174z" />
<glyph unicode="_" horiz-adv-x="1548" d="M41 -98q11 0 122.5 -4t283 -8.5t327.5 -4.5t327.5 4.5t283 8.5t122.5 4v-84q-11 0 -122.5 4.5t-283 9t-327.5 4.5t-327.5 -4.5t-283 -9t-122.5 -4.5v84z" />
<glyph unicode="`" horiz-adv-x="702" d="M41 1473l63 112q114 -111 281 -252q144 -126 277 -237l-5 -6q-114 85 -299 200q-263 158 -317 183z" />
<glyph unicode="a" horiz-adv-x="970" d="M20 330q0 168 109 304.5t307 227.5q-42 -30 -83.5 -70t-88.5 -99t-76.5 -136t-29.5 -156q0 -154 76.5 -244t218.5 -91h9q72 0 138 30q70 32 115 99q-216 634 -264 716q-23 41 -65 63q-41 22 -84 22h-2q-44 0 -91 -13l-4 2q33 25 83.5 40t96.5 15q147 0 213 -155 q11 -26 41 -103t65 -171.5t67.5 -182t56.5 -153.5l24 -66q36 -91 62.5 -138t56.5 -71h-191l-59 178q-62 -98 -140 -145.5t-200 -48.5q-157 0 -259 96t-102 250z" />
<glyph unicode="b" horiz-adv-x="1005" d="M18 1317v8l218 109v-576q51 87 138 134.5t167 47.5q85 0 164 -36.5t140.5 -102.5t98.5 -166.5t37 -218.5q0 -130 -39 -235t-103 -168t-140 -96t-156 -33q-91 0 -175 40.5t-135 96.5l-131 -121l13 1010v13q0 215 -97 294zM236 147q108 -94 239 -94q48 0 97 15.5t97.5 50.5 t85.5 86t60 129t23 172q0 107 -30 195t-81 145t-117.5 88t-140.5 31q-67 0 -130.5 -35t-102.5 -103v-680z" />
<glyph unicode="c" horiz-adv-x="1073" d="M25 504q0 230 147.5 381.5t370.5 154.5h14q239 0 393 -100v-315q-48 173 -166 283q-115 107 -254 106h-8q-89 -1 -162 -40t-119 -102t-71 -142t-25 -165q0 -197 125 -323.5t312 -126.5q189 0 314.5 105t154.5 269h2q-2 -136 -71 -252t-187.5 -184.5t-257.5 -68.5 q-214 0 -363 149t-149 371z" />
<glyph unicode="d" horiz-adv-x="1009" d="M25 516q0 118 37 218.5t98.5 166.5t140.5 102.5t164 36.5q56 0 107.5 -18t90.5 -48t66 -59.5t47 -60.5l2 156v13q0 216 -96 294v8l217 109v-1076q0 -136 26.5 -228.5t69.5 -129.5h-229l2 106q-27 -24 -51.5 -42t-61.5 -38t-83 -31t-97 -11q-84 0 -163 33t-144 96.5 t-104 167.5t-39 235zM168 516q0 -121 33 -213.5t88 -145t119.5 -78.5t136.5 -26q120 0 223 82l8 680q-37 71 -112.5 123.5t-155.5 52.5q-59 0 -117.5 -29.5t-109 -85t-82 -149.5t-31.5 -211z" />
<glyph unicode="e" horiz-adv-x="1079" d="M25 506q0 151 71.5 274t193 191.5t265.5 68.5q177 0 288 -109t111 -282h-790q-8 -44 -8 -102q0 -188 124 -310t300 -122q193 0 321.5 105.5t155.5 268.5h2q-1 -101 -43 -194t-111 -161.5t-164.5 -109t-199.5 -40.5q-141 0 -259 67.5t-187.5 187.5t-69.5 267zM168 670h336 q155 0 219.5 48.5t64.5 123.5q0 80 -71.5 128t-177.5 48q-133 0 -237 -94.5t-134 -253.5z" />
<glyph unicode="f" horiz-adv-x="612" d="M-10 950v15h448q-179 37 -313.5 144t-134.5 218q0 55 40 89t101 34q54 0 113.5 -22t142.5 -64q80 -41 205 -72v-190q-83 59 -153.5 123.5t-104 102t-67 62.5t-64.5 25q-60 0 -60 -92q0 -87 64.5 -170.5t169.5 -135.5t215 -52v-15h-240v-592q0 -135 27 -228t70 -130h-230 l12 723v7q0 62 -17 106q-18 47 -53.5 71t-76.5 33.5t-94 9.5z" />
<glyph unicode="g" horiz-adv-x="1007" d="M-31 -334q0 31 7.5 59.5t17.5 52t32 48.5t38.5 42.5t51 40.5t55.5 36.5t64.5 36.5t66.5 34.5l73 36.5q223 109 314 219t91 279q0 123 -48.5 226.5t-139 166t-203.5 62.5q-112 0 -177 -90t-65 -224q0 -184 107 -312t291 -157q-68 -24 -144 -24q-167 0 -271.5 114.5 t-104.5 296.5q0 188 129.5 309t320.5 121q155 0 270 -84l91 226h192v-2q-81 -48 -140 -97t-138 -131q82 -61 123.5 -144t41.5 -173q0 -149 -76.5 -261.5t-236.5 -213.5q-81 -51 -157 -107.5t-162.5 -133.5t-139.5 -160t-53 -154q0 -40 23.5 -63t52.5 -23q57 0 125 41.5 t141 107t150 135.5t177.5 136.5t198.5 99.5v-195q-86 -10 -179 -50.5t-171.5 -90t-155.5 -98t-156.5 -81t-148.5 -32.5q-78 0 -128 48t-50 126z" />
<glyph unicode="h" horiz-adv-x="1034" d="M18 1317v8l218 109v-549q125 155 284 155q136 0 202.5 -87.5t106.5 -313.5l58 -320q41 -234 147 -319h-227l-102 610q-31 183 -87 272t-157 89q-114 0 -225 -111v-502q0 -136 26.5 -228.5t69.5 -129.5h-230l13 1010v13q0 215 -97 294z" />
<glyph unicode="i" horiz-adv-x="346" d="M18 924v8l218 108v-682q0 -136 26.5 -228.5t69.5 -129.5h-230l13 616v13q0 216 -97 295zM35 1274q0 44 32 76t76 32q45 0 76 -31.5t31 -76.5t-31 -76t-76 -31q-44 0 -76 31.5t-32 75.5z" />
<glyph unicode="j" horiz-adv-x="333" d="M20 924v8l218 108v-968q0 -187 -55 -277.5t-160 -120.5v7q33 19 53 57.5t32 127.5q11 82 11 212v22l-2 516q0 229 -97 308zM37 1274q0 44 32 76t76 32q45 0 76 -31.5t31 -76.5t-31 -76t-76 -31q-44 0 -76 31.5t-32 75.5z" />
<glyph unicode="k" horiz-adv-x="911" d="M20 0q90 82 95 297l14 711v18q0 79 -16 141q-18 69 -37.5 98t-40.5 44v8l233 117l-104 -1317q48 143 118.5 278t190.5 283q109 133 119 235q1 9 1 17q0 52 -22 94h326q-67 -33 -163 -118t-189 -191l233 -512q44 -98 133 -203h-256q1 17 1 35q0 120 -64 262l-139 313 q-64 -81 -117.5 -185t-54.5 -194v-10q0 -128 77 -221h-338z" />
<glyph unicode="l" horiz-adv-x="346" d="M18 1317v8l218 109v-1076q0 -136 26.5 -228.5t69.5 -129.5h-230l13 1010v13q0 215 -97 294z" />
<glyph unicode="m" horiz-adv-x="1601" d="M18 922v10l215 108v-174q63 80 150 127t172 47q179 0 236 -174q135 174 296 174q135 0 203 -91.5t107 -309.5l57 -320q41 -233 148 -319h-228l-102 610q-32 191 -86.5 276t-157.5 85q-66 0 -119 -31.5t-112 -91.5q22 -84 22 -209v-266q0 -136 26.5 -239.5t65.5 -133.5 h-223l12 610v29q0 67 -8 118q-10 62 -33.5 111.5t-69 75t-112.5 25.5q-133 0 -244 -125v-486q0 -134 27.5 -227t69.5 -131h-228l13 614v13q0 216 -97 295z" />
<glyph unicode="n" horiz-adv-x="1034" d="M18 924v8l218 108v-155q125 155 284 155q136 0 202.5 -87.5t106.5 -313.5l58 -320q41 -234 147 -319h-227l-102 610q-31 182 -88 272q-56 89 -154 89h-2q-69 -1 -120.5 -29.5t-104.5 -81.5v-502q0 -136 26.5 -228.5t69.5 -129.5h-230l13 616v13q0 216 -97 295z" />
<glyph unicode="o" horiz-adv-x="1083" d="M25 520q0 144 69 264t185 188t253 68q141 0 262 -71.5t193 -195t72 -269.5q0 -144 -69 -264t-185.5 -188t-253.5 -68q-140 0 -261.5 72t-193 195.5t-71.5 268.5zM156 604q0 -138 61 -273.5t168.5 -225t228.5 -89.5q100 0 173 59t107 149t34 196q0 135 -60.5 270.5 t-168.5 226.5t-230 91q-76 0 -137 -34t-98.5 -91.5t-57.5 -129t-20 -149.5z" />
<glyph unicode="p" horiz-adv-x="1001" d="M18 924v8l218 108v-174q51 83 137 128.5t164 45.5q85 0 164 -36.5t140.5 -102.5t98.5 -166.5t37 -218.5q0 -130 -39 -235t-103 -168t-140 -96t-156 -33q-88 0 -169.5 39t-133.5 92v-150q0 -86 28 -177.5t68 -125.5h-230l13 954v13q0 216 -97 295zM236 143 q108 -90 235 -90q48 0 97 15.5t97.5 50.5t85.5 86t60 129t23 172q0 107 -30 195t-81 145t-117.5 88t-140.5 31q-66 0 -128 -33t-101 -98v-691z" />
<glyph unicode="q" horiz-adv-x="995" d="M25 508q0 130 39 235t103 168t140 96t156 33q94 0 178 -36t131 -89l127 125v-1020q0 -136 28.5 -228.5t76.5 -129.5h-232v506q-51 -87 -139 -135.5t-168 -48.5q-85 0 -164 36.5t-140.5 102.5t-98.5 166.5t-37 218.5zM168 518q0 -107 30 -195t81 -145t117.5 -88t140.5 -31 q69 0 133 36t102 106v686q-96 84 -242 84q-61 0 -122 -26t-116 -77.5t-89.5 -142.5t-34.5 -207z" />
<glyph unicode="r" horiz-adv-x="675" d="M18 924v8l218 108v-381q27 175 132 266t283 115l-33 -147h-10q-148 0 -258 -87q-114 -90 -114 -224v-224q0 -136 26.5 -228.5t69.5 -129.5h-230l13 616v13q0 216 -97 295z" />
<glyph unicode="s" horiz-adv-x="815" d="M45 362h4q139 -356 364 -356h5q117 3 185 56q67 52 67 140q0 29 -8 52t-27 43.5t-35 35.5t-50 34t-53.5 29.5t-63 31.5t-62.5 31q-142 72 -187 103q-123 84 -134 198q-1 6 -1 12v14q1 118 97 184q102 70 280 70q145 0 287 -67l16 -291h-4q-27 65 -50.5 110.5t-55 91 t-65 73t-78 44.5t-97.5 17q-97 0 -165 -50q-63 -46 -62 -117v-13q2 -27 9.5 -49.5t25 -42t32 -33.5t45.5 -32t48.5 -27.5t58.5 -29t59 -28.5q15 -7 50.5 -25t51 -26t46.5 -24.5t46 -26.5t40 -27t38 -30t30 -32t26 -36.5t16.5 -39t9.5 -44.5q1 -14 1 -27q0 -115 -102 -190 q-114 -84 -282 -84q-169 0 -340 59z" />
<glyph unicode="t" horiz-adv-x="397" d="M-14 1018v8q83 30 154 108t89 152h9v-248h149v-20h-149v-557q0 -441 149 -453v-8q-78 0 -133.5 31.5t-86.5 92t-44.5 137t-13.5 177.5v580h-123z" />
<glyph unicode="u" horiz-adv-x="993" d="M18 924v8l218 108v-628q0 -198 60 -278.5t181 -80.5q76 0 148.5 37.5t126.5 99.5l2 410q0 247 -95 324v8l218 108v-682q0 -134 29 -227t73 -131h-229l2 160q-61 -81 -159 -128.5t-190 -47.5q-148 0 -219 93t-71 308v215q0 247 -95 324z" />
<glyph unicode="v" horiz-adv-x="946" d="M8 1016v8h258v-8q-16 -11 -16 -64q0 -65 35 -147l243 -602l154 368q80 195 80 314q0 73 -25 131v8h201v-8q-88 -94 -207 -381l-203 -488v-147h-55l-299 725q-56 135 -99 207t-67 84z" />
<glyph unicode="w" horiz-adv-x="1466" d="M8 1016v8h258v-8q-16 -11 -16 -64q0 -65 35 -147l243 -602l154 368q24 56 37 97l-25 57q-56 135 -99 207t-67 84v8h258v-8q-16 -11 -16 -64q0 -65 35 -147l244 -602l153 368q80 195 80 314q0 73 -25 131v8h201v-8q-88 -94 -207 -381l-202 -488v-147h-56l-262 635 l-203 -488v-147h-55l-299 725q-56 135 -99 207t-67 84z" />
<glyph unicode="x" horiz-adv-x="903" d="M6 0v8q75 43 121 113l258 387l-248 412q-23 37 -58 65t-59 33v6h285v-8q-21 -21 -21 -56q0 -30 19 -61l195 -324q137 204 176 271q41 64 41 117q0 27 -17 53v8h189v-8q-22 -10 -58.5 -43t-64.5 -72l-252 -344l260 -432q26 -43 64 -75.5t61 -41.5v-8h-279v8q15 24 15 52 q0 39 -29 87l-205 340q-45 -65 -116.5 -192t-94.5 -186q-10 -30 -10 -48q0 -34 19 -53v-8h-191z" />
<glyph unicode="y" horiz-adv-x="946" d="M8 -315q297 98 449 354l-283 686q-56 135 -99 207t-67 84v8h258v-8q-16 -11 -16 -64q0 -65 35 -147l243 -602l203 485q31 71 31 174q0 92 -25 154v8h201v-8q-38 -35 -84 -116t-123 -265l-166 -397q-55 -131 -98 -224t-87 -166t-79.5 -120t-85.5 -90.5t-93 -73t-114 -70.5 v191z" />
<glyph unicode="z" horiz-adv-x="868" d="M31 0l641 1004h-250q-136 0 -214.5 -59.5t-137.5 -203.5h-9l45 283h738l-641 -1004h258q89 0 146.5 13t100 48t69 80t59.5 124h8l-47 -285h-766z" />
<glyph unicode="{" horiz-adv-x="468" d="M20 463v14q72 53 99.5 141.5t27.5 208.5q0 49 -5 145t-5 138q4 355 170 397q72 18 131 27v-64q-4 1 -20.5 6.5t-34 9t-35.5 3.5q-53 0 -91.5 -30.5t-59 -84.5t-30 -118t-9.5 -142q0 -56 8 -170t8 -166q0 -103 -24 -179t-87 -128q61 -52 85 -128t24 -177q0 -54 -7 -167 t-7 -169q0 -79 9.5 -143.5t30 -119.5t59 -85.5t91.5 -30.5q18 0 35.5 3.5t34 9t20.5 6.5v-64q-59 9 -131 27q-170 42 -170 407q0 41 5 134t5 141q0 119 -27.5 207t-99.5 141z" />
<glyph unicode="|" horiz-adv-x="360" d="M143 -375q0 10 6.5 156.5t12.5 356t6 372.5q0 167 -6 397.5t-11.5 396.5t-5.5 177h72q0 -10 -6.5 -166.5t-13.5 -376.5t-7 -385t6 -385t12.5 -376.5t6.5 -166.5h-72z" />
<glyph unicode="}" horiz-adv-x="468" d="M31 -530q4 -1 20.5 -6.5t34 -9t35.5 -3.5q190 0 190 383q0 55 -8 166t-8 164q0 214 111 307q-63 52 -87 127.5t-24 177.5q0 54 8 167.5t8 170.5q0 78 -9.5 142t-30 118t-59 84.5t-91.5 30.5q-18 0 -35.5 -3.5t-34 -9t-20.5 -6.5v64q59 -9 131 -27q170 -42 170 -407 q0 -41 -5 -134t-5 -141q0 -119 27.5 -207t99.5 -141v-14q-72 -53 -99.5 -141.5t-27.5 -208.5q0 -49 5 -145t5 -138q-4 -355 -170 -397q-72 -18 -131 -27v64z" />
<glyph unicode="~" horiz-adv-x="1026" d="M102 543q95 186 209 186q15 0 31 -1.5t28 -3t29 -6.5t25 -7.5t27 -9.5t24.5 -9t27 -11t25.5 -11q48 -20 68.5 -27.5t62.5 -17t82 -9.5q110 0 174 119l9 -4q-95 -186 -209 -186q-15 0 -31 1.5t-28 3t-29 6.5t-25 7.5t-27 9.5t-24.5 9t-27 11t-25.5 11q-46 19 -68 27 t-63.5 17t-81.5 9q-111 0 -174 -118z" />
<glyph unicode="&#xa1;" horiz-adv-x="409" d="M102 946q0 41 31 72t74 31t71.5 -30.5t28.5 -72.5q0 -44 -28 -74t-72 -30q-43 0 -74 30.5t-31 73.5zM129 -410q23 79 39 385l33 715h8l33 -715q7 -136 17 -232.5t16 -124.5l6 -28h-152z" />
<glyph unicode="&#xa2;" horiz-adv-x="1073" d="M25 504q0 218 135.5 367.5t343.5 166.5q-10 123 -10 150h73l-8 -148q238 0 391 -100v-315q-45 162 -152 269.5t-239 117.5q-16 -246 -16 -516q0 -163 8 -381h31q189 0 314.5 105t154.5 269h2q-3 -203 -147 -349.5t-349 -155.5q10 -150 10 -181h-71q0 1 12 181 q-205 12 -344 159t-139 361zM145 565q0 -179 104 -300.5t267 -145.5q8 196 8 342q0 258 -18 553q-86 -5 -155.5 -45t-114 -103t-68 -140.5t-23.5 -160.5z" />
<glyph unicode="&#xa3;" horiz-adv-x="1030" d="M0 0q228 114 323 213t95 197q0 50 -22 103t-89 165l-235 2v18l221 2q-34 60 -47.5 86.5t-37 79t-33 98.5t-9.5 95q0 180 122 277.5t330 97.5q43 0 85.5 -6.5t67.5 -12t65 -22t50 -21.5t50 -24l51 -418h-4q-52 246 -176.5 369t-274.5 112q-40 0 -86 -17t-89 -48t-71 -81 t-28 -108q0 -56 31 -126t87 -167t83 -159q75 3 152 6.5t119.5 5.5t53.5 2v-62q-11 0 -52 2.5t-114.5 6t-146.5 6.5q46 -114 33 -212t-74 -178t-178 -159h295q95 0 177 10.5t132 25t86.5 29t51.5 24.5l14 11h8l-58 -223h-958z" />
<glyph unicode="&#xa4;" horiz-adv-x="1087" d="M102 242q11 11 68 65t98 94q-96 107 -96 250t96 250l-166 156l35 35l156 -166q106 98 252 98q143 0 250 -96q126 133 157 164l33 -35q-105 -97 -164 -154q97 -109 97 -252q0 -145 -99 -252q29 -27 68.5 -64.5t63 -59.5t34.5 -33l-33 -33q-11 11 -33 34.5t-59.5 63 t-64.5 68.5q-107 -96 -250 -96q-146 0 -252 98q-50 -53 -156 -168zM195 651q0 -145 102.5 -247.5t247.5 -102.5q146 0 248 102.5t102 247.5t-102.5 247.5t-247.5 102.5t-247.5 -102.5t-102.5 -247.5z" />
<glyph unicode="&#xa5;" horiz-adv-x="1167" d="M10 1434h256q-8 -19 -8 -56q0 -58 33 -131l348 -755q39 77 112 238.5t113 283.5q72 215 72 332q0 56 -16 88h237q-4 -5 -25.5 -26.5t-36 -41t-41 -59.5t-61 -107t-75.5 -158l-265 -583v-43q64 2 124.5 5t95 5t45.5 2v-61q-12 0 -45.5 2t-95 5.5t-124.5 6.5q3 -64 13 -139 q54 2 115.5 6t92.5 5.5t44 0.5v-61q-11 0 -42.5 2t-89.5 5.5t-116 6.5q26 -139 78 -207h-322q55 72 78 213q-33 0 -110 1t-122 1v18q45 0 124 1.5t112 1.5q9 68 12 149q-148 4 -248 4v19q100 0 248 4l-397 860q-56 120 -113 162z" />
<glyph unicode="&#xa6;" horiz-adv-x="358" d="M143 -375q0 1 10.5 140.5t10.5 285.5q0 107 -5 203.5t-10 151.5t-4 73h70q0 -1 -11 -141t-11 -287q0 -146 11 -285.5t11 -140.5h-72zM143 627q0 1 10.5 140.5t10.5 285.5q0 107 -5 203.5t-10 151.5t-4 73h70q0 -1 -11 -141t-11 -287q0 -146 11 -285.5t11 -140.5h-72z" />
<glyph unicode="&#xa7;" horiz-adv-x="841" d="M61 362h5q140 -358 368 -358q103 0 177.5 41.5t74.5 124.5q0 28 -10 54t-21.5 45t-39.5 41.5t-45.5 35.5t-58 34.5t-59 30.5t-65.5 31q-51 25 -79.5 39.5t-72.5 40t-69 48.5t-51 53t-37.5 65.5t-11.5 75.5q0 104 74 174t198 94q-63 31 -103.5 56t-83.5 61.5t-64 81 t-21 98.5q0 125 106 201t270 76q62 0 119 -11t90.5 -23.5t77.5 -33.5l16 -291h-4q-27 65 -50.5 110.5t-55 91t-65 73t-78 44.5t-97.5 17q-92 0 -159.5 -52.5t-67.5 -127.5q0 -29 16.5 -57.5t38.5 -49.5t64.5 -48t73 -43.5t85.5 -43.5q166 -84 228 -130q126 -94 127 -202 q0 -109 -68.5 -183t-183.5 -103q57 -31 97 -57.5t78 -61t57.5 -75t19.5 -85.5q0 -125 -109.5 -202.5t-273.5 -77.5q-169 0 -340 59zM168 838q0 -59 59.5 -109.5t227.5 -136.5l63 -33q73 18 120.5 64t47.5 112q0 75 -57 129t-209 127l-51 25q-83 -8 -142 -58.5t-59 -119.5z " />
<glyph unicode="&#xa8;" horiz-adv-x="587" d="M51 1245q0 41 29 69.5t70 28.5t69.5 -28.5t28.5 -69.5t-28.5 -69.5t-69.5 -28.5t-70 28.5t-29 69.5zM340 1245q0 41 28.5 69.5t69.5 28.5t70 -28.5t29 -69.5t-29 -69.5t-70 -28.5t-69.5 28.5t-28.5 69.5z" />
<glyph unicode="&#xa9;" horiz-adv-x="1585" d="M61 715q0 150 57.5 286.5t155.5 234.5t233.5 156t285.5 58q200 0 368 -98t265.5 -267t97.5 -370q0 -198 -97.5 -366t-266 -266.5t-367.5 -98.5q-149 0 -285 58t-233.5 156.5t-155.5 233.5t-58 283zM82 713q0 -144 55.5 -274.5t150.5 -226t227 -152t278 -56.5t278 56.5 t226.5 152t150 226t55.5 274.5q0 197 -94 361.5t-257.5 260t-358.5 95.5q-146 0 -278 -56.5t-227 -152t-150.5 -228.5t-55.5 -280zM334 713q0 134 68.5 247t184.5 177.5t251 64.5q177 0 344 -104v-236h-2q-101 301 -394 301q-155 0 -248.5 -113t-93.5 -290q0 -89 32 -172 t89.5 -148t145.5 -104t192 -39q107 0 200.5 62.5t137.5 166.5h8q-16 -46 -50.5 -95t-87 -96t-129 -76.5t-161.5 -29.5q-132 0 -244 64.5t-177.5 176t-65.5 243.5z" />
<glyph unicode="&#xab;" horiz-adv-x="737" d="M41 487q129 105 201 183q24 26 202 190h7q-86 -89 -144.5 -163.5t-140.5 -209.5q82 -133 139.5 -206t145.5 -166h-7q-29 28 -106.5 100t-95.5 90q-114 114 -201 182zM262 487q129 105 201 183q17 19 203 190h6q-86 -89 -144.5 -163.5t-140.5 -209.5q56 -91 109 -162 t84 -106t96 -104h-10q-31 29 -108.5 101t-94.5 89q-114 114 -201 182z" />
<glyph unicode="&#xac;" horiz-adv-x="1081" d="M102 868v72q13 0 171.5 -5t361.5 -10t323 -5q0 -129 5 -235t10.5 -163.5t5.5 -68.5h-72q0 13 5.5 68t11.5 153t6 217q-123 -1 -320 -6.5t-345.5 -11t-162.5 -5.5z" />
<glyph unicode="&#xad;" horiz-adv-x="991" d="M102 537v71q1 0 130 -9t264 -9t263.5 9t129.5 9v-71q-1 0 -129.5 10t-263.5 10t-264 -10t-130 -10z" />
<glyph unicode="&#xae;" horiz-adv-x="1085" d="M61 967q0 132 64.5 243t175.5 175.5t242 64.5t241.5 -64.5t175 -175.5t64.5 -243q0 -198 -141 -340t-340 -142t-340.5 142t-141.5 340zM82 965q0 -92 37 -177t99 -146.5t147 -98.5t178 -37q191 0 326 135.5t135 323.5q0 193 -133.5 329t-327.5 136q-126 0 -232 -62.5 t-167.5 -169.5t-61.5 -233zM342 678q39 49 39 170v237q0 124 -39 170h193q186 0 186 -96q0 -23 -15 -45t-30.5 -34t-48.5 -34l-45 -30l61 -135q51 -112 109 -203h-105q0 26 -16.5 84t-36.5 102l-55 117q-65 -63 -84.5 -149t16.5 -154h-129zM381 717q37 113 75.5 174 t84.5 104q2 2 13.5 13t15.5 14.5t15 14.5t15.5 16.5t14 17t14 18.5t11 17.5t9.5 19t5.5 18.5t2.5 19q0 84 -139 84q-45 0 -67.5 -16t-26.5 -55q-22 -280 -43 -459z" />
<glyph unicode="&#xaf;" horiz-adv-x="598" d="M41 1143v43q6 0 95 -4t163 -4t163 4t95 4v-43q-6 0 -95 5t-163 5t-163 -5t-95 -5z" />
<glyph unicode="&#xb0;" horiz-adv-x="612" d="M41 1184q0 110 78 188t188 78q109 0 186.5 -78t77.5 -188q0 -109 -77.5 -186.5t-186.5 -77.5q-110 0 -188 77.5t-78 186.5zM55 1184q0 -104 74 -177t178 -73t177 73t73 177t-73 178t-177 74t-178 -74t-74 -178z" />
<glyph unicode="&#xb1;" horiz-adv-x="1089" d="M102 182v37q305 -10 443 -10q137 0 442 10v-37q-336 11 -442 11q-107 0 -443 -11zM102 766v37q295 -10 435 -10q0 109 -11 434h37q-10 -295 -10 -434q139 0 434 10v-37q-295 10 -434 10q0 -139 10 -434h-37q11 325 11 434q-140 0 -435 -10z" />
<glyph unicode="&#xb4;" horiz-adv-x="700" d="M41 1096q109 91 276 237q167 141 281 252l64 -112q-58 -26 -318 -183q-185 -115 -299 -200z" />
<glyph unicode="&#xb6;" horiz-adv-x="993" d="M31 1057q0 156 110.5 266.5t266.5 110.5h294q-3 -4 -9 -12.5t-20.5 -41.5t-25.5 -72.5t-20 -108.5t-9 -148v-668q0 -79 8 -147.5t19.5 -110t23 -71.5t19.5 -42l8 -12h-209q3 4 8.5 12.5t19.5 41t24.5 72.5t19 109t8.5 148v297h-159q-156 0 -266.5 110.5t-110.5 266.5z M752 1434h221q-3 -4 -9 -12.5t-20.5 -41.5t-25.5 -72.5t-20 -108.5t-9 -148v-668q0 -79 8 -147.5t19.5 -110t23 -71.5t19.5 -42l8 -12h-209q3 4 8.5 12.5t19.5 41t24.5 72.5t19 109t8.5 148v668q0 79 -9 147t-21.5 109.5t-25 72t-21.5 42.5z" />
<glyph unicode="&#xb7;" horiz-adv-x="327" d="M61 547q0 43 31 73.5t74 30.5q44 0 72 -30t28 -74q0 -42 -28.5 -72.5t-71.5 -30.5t-74 31t-31 72z" />
<glyph unicode="&#xb8;" horiz-adv-x="428" d="M41 92l152 162h18l-18 -18q-18 -17 -14 -28t28 -11q87 0 133.5 -35t46.5 -92q0 -43 -29.5 -83t-76.5 -69t-97 -49.5t-100 -32.5l-2 10q72 14 138.5 73.5t66.5 123.5q0 42 -26 66t-73 24q-74 0 -141 -45z" />
<glyph unicode="&#xbb;" horiz-adv-x="737" d="M61 115q65 69 96 104t84 106t109 162q-83 136 -141 210.5t-143 162.5h6q178 -164 202 -190q72 -78 201 -183q-87 -68 -201 -182q-18 -18 -95.5 -90t-106.5 -100h-11zM287 115q86 92 144 165.5t140 206.5q-83 136 -141 210.5t-143 162.5h6q186 -171 203 -190 q75 -81 200 -183q-82 -65 -200 -182q-17 -17 -94.5 -89t-108.5 -101h-6z" />
<glyph unicode="&#xbf;" horiz-adv-x="823" d="M20 -213q0 53 33 110.5t86 110.5t117 108.5t128.5 113t117.5 115.5t86 125t33 132q0 38 -11 88l19 2q10 -51 10 -94q0 -82 -40.5 -164t-102.5 -154.5t-126 -144t-120 -158t-76 -170.5q-14 -51 -4 -88.5t31 -63.5t54.5 -41.5t66.5 -22.5t67 -7q61 0 117 26.5t98.5 67.5 t81.5 99.5t65 112.5t50 116h2v-344q-71 -43 -189.5 -70.5t-216.5 -27.5q-77 0 -141.5 11.5t-119 36t-85.5 69.5t-31 106zM496 936q0 42 28.5 72t71.5 30t73.5 -30.5t30.5 -71.5q0 -43 -30.5 -74t-73.5 -31t-71.5 30.5t-28.5 74.5z" />
<glyph unicode="&#xc0;" horiz-adv-x="1140" d="M10 0q64 124 133 348q34 112 67 214t58.5 177t52 144.5t44 113.5t37 88.5t29 64t22.5 46t14 29.5v209h63l324 -848q151 -399 276 -586h-276q0 76 -3 114t-24.5 122t-68.5 210l-99 261h-358q-72 -284 -72 -549q0 -65 7 -158h-226zM225 1898l64 113q120 -117 280 -252 q144 -126 277 -237l-4 -6q-114 85 -299 200q-253 152 -318 182zM305 727h348l-176 469q-102 -200 -172 -469z" />
<glyph unicode="&#xc1;" horiz-adv-x="1140" d="M10 0q64 124 133 348q34 112 67 214t58.5 177t52 144.5t44 113.5t37 88.5t29 64t22.5 46t14 29.5v209h63l324 -848q151 -399 276 -586h-276q0 76 -3 114t-24.5 122t-68.5 210l-99 261h-358q-72 -284 -72 -549q0 -65 7 -158h-226zM225 1522q133 111 277 237 q160 135 280 252l64 -113q-65 -30 -318 -182q-185 -115 -299 -200zM305 727h348l-176 469q-102 -200 -172 -469z" />
<glyph unicode="&#xc2;" horiz-adv-x="1140" d="M10 0q64 124 133 348q34 112 67 214t58.5 177t52 144.5t44 113.5t37 88.5t29 64t22.5 46t14 29.5v209h63l324 -848q151 -399 276 -586h-276q0 76 -3 114t-24.5 122t-68.5 210l-99 261h-358q-72 -284 -72 -549q0 -65 7 -158h-226zM174 1524q70 92 190 251.5t173 227.5 q124 -157 362 -479l-4 -6q-67 75 -179 170.5t-179 130.5q-67 -34 -175.5 -127.5t-183.5 -173.5zM305 727h348l-176 469q-102 -200 -172 -469z" />
<glyph unicode="&#xc3;" horiz-adv-x="1140" d="M10 0q64 124 133 348q34 112 67 214t58.5 177t52 144.5t44 113.5t37 88.5t29 64t22.5 46t14 29.5v209h63l324 -848q151 -399 276 -586h-276q0 76 -3 114t-24.5 122t-68.5 210l-99 261h-358q-72 -284 -72 -549q0 -65 7 -158h-226zM211 1561q19 36 28 52.5t29.5 47.5 t38.5 46t45.5 27.5t57.5 12.5q38 0 75 -16.5t62.5 -37t60.5 -37t70 -16.5q110 0 174 119l8 -4q-15 -28 -19.5 -37.5t-19.5 -35.5t-24 -36.5t-26 -29t-31.5 -26t-35 -14.5t-42.5 -7q-38 0 -75 16.5t-62.5 36.5t-61 36.5t-70.5 16.5q-110 0 -174 -119zM305 727h348l-176 469 q-102 -200 -172 -469z" />
<glyph unicode="&#xc4;" horiz-adv-x="1140" d="M10 0q64 124 133 348q34 112 67 214t58.5 177t52 144.5t44 113.5t37 88.5t29 64t22.5 46t14 29.5v209h63l324 -848q151 -399 276 -586h-276q0 76 -3 114t-24.5 122t-68.5 210l-99 261h-358q-72 -284 -72 -549q0 -65 7 -158h-226zM295 1671q0 41 28.5 69.5t69.5 28.5 t70 -28.5t29 -69.5t-29 -69.5t-70 -28.5t-69.5 28.5t-28.5 69.5zM305 727h348l-176 469q-102 -200 -172 -469zM584 1671q0 41 28.5 69.5t69.5 28.5t69.5 -28.5t28.5 -69.5t-28.5 -69.5t-69.5 -28.5t-69.5 28.5t-28.5 69.5z" />
<glyph unicode="&#xc5;" horiz-adv-x="1148" d="M10 0q64 124 133 348q34 112 67 214t58.5 177t52 144.5t44 113.5t37 88.5t29 64t22.5 46t14 29.5v207q-60 11 -98.5 57.5t-38.5 109.5q0 71 50 120.5t122 49.5q70 0 120 -49.5t50 -120.5q0 -62 -37.5 -108.5t-95.5 -58.5l323 -846q150 -396 277 -586h-285q0 78 -2.5 114 t-24 121.5t-69.5 210.5l-99 261h-358q-72 -284 -72 -549q0 -65 7 -158h-226zM305 727h348l-176 469q-102 -200 -172 -469zM354 1597q0 -61 43 -103t105 -42q58 0 101.5 42.5t43.5 102.5q0 62 -43.5 105t-101.5 43q-62 0 -105 -42.5t-43 -105.5z" />
<glyph unicode="&#xc6;" horiz-adv-x="1456" d="M10 0q73 140 133 348q47 166 111 320t119.5 256t117 194t95 133t63.5 74q-20 65 -53 109h774l8 -217h-4q-63 82 -174.5 139t-208.5 57q-81 0 -130.5 -46t-49.5 -138q0 -121 88.5 -197t263.5 -76h121v-188h-2q-188 145 -324 205q-71 31 -139 39v-989q100 11 178.5 24 t172 35t163.5 57t109 80l-8 -219h-838q94 124 94 424v283l-364 2q-97 -293 -97 -551q0 -65 7 -158h-226zM334 727h356v283q0 166 -33 288q-211 -245 -323 -571z" />
<glyph unicode="&#xc7;" horiz-adv-x="1415" d="M20 711q0 152 60.5 289.5t162.5 235.5t242 156t293 58q261 0 516 -160v-350h-4q-61 229 -216 349t-382 120q-162 0 -284 -80t-186 -219.5t-64 -318.5q0 -140 48.5 -270t135 -229.5t215.5 -159.5t279 -60q69 0 146.5 21.5t155.5 62.5t146 113t107 163h8 q-19 -55 -55 -113.5t-94.5 -119t-129.5 -108t-167 -77.5t-199 -30h-33l-14 -15q-18 -17 -14 -28t28 -11q87 0 133.5 -35t46.5 -92q0 -43 -29.5 -83t-76.5 -68.5t-97 -49t-100 -32.5l-2 10q72 14 138.5 73.5t66.5 123.5q0 42 -26 66t-73 24q-74 0 -141 -45l-6 4l150 160 q-188 12 -345 111.5t-248.5 262t-91.5 351.5z" />
<glyph unicode="&#xc8;" horiz-adv-x="880" d="M20 0q95 125 95 424v586q0 299 -95 424h775l8 -217h-4q-63 82 -174.5 139t-208.5 57q-81 0 -130.5 -46t-49.5 -138q0 -121 88.5 -197t263.5 -76h121v-188h-2q-188 145 -324 205q-71 31 -139 39v-989q100 11 178 24t171.5 35t163.5 57t109 80l-8 -219h-838zM129 1898 l64 113q120 -117 280 -252q144 -126 277 -237l-5 -6q-114 85 -299 200q-256 154 -317 182z" />
<glyph unicode="&#xc9;" horiz-adv-x="880" d="M20 0q95 125 95 424v586q0 299 -95 424h775l8 -217h-4q-63 82 -174.5 139t-208.5 57q-81 0 -130.5 -46t-49.5 -138q0 -121 88.5 -197t263.5 -76h121v-188h-2q-188 145 -324 205q-71 31 -139 39v-989q100 11 178 24t171.5 35t163.5 57t109 80l-8 -219h-838zM129 1522 q133 111 277 237q160 135 280 252l64 -113q-65 -30 -318 -182q-185 -115 -299 -200z" />
<glyph unicode="&#xca;" horiz-adv-x="880" d="M20 0q95 125 95 424v586q0 299 -95 424h775l8 -217h-4q-63 82 -174.5 139t-208.5 57q-81 0 -130.5 -46t-49.5 -138q0 -121 88.5 -197t263.5 -76h121v-188h-2q-188 145 -324 205q-71 31 -139 39v-989q100 11 178 24t171.5 35t163.5 57t109 80l-8 -219h-838zM78 1524 q73 96 191.5 254t170.5 225q139 -176 363 -479l-4 -6q-67 75 -179.5 170.5t-179.5 130.5q-66 -34 -174 -127t-184 -174z" />
<glyph unicode="&#xcb;" horiz-adv-x="880" d="M20 0q95 125 95 424v586q0 299 -95 424h775l8 -217h-4q-63 82 -174.5 139t-208.5 57q-81 0 -130.5 -46t-49.5 -138q0 -121 88.5 -197t263.5 -76h121v-188h-2q-188 145 -324 205q-71 31 -139 39v-989q100 11 178 24t171.5 35t163.5 57t109 80l-8 -219h-838zM199 1671 q0 41 28.5 69.5t69.5 28.5t69.5 -28.5t28.5 -69.5t-28.5 -69.5t-69.5 -28.5t-69.5 28.5t-28.5 69.5zM487 1671q0 41 29 69.5t70 28.5t69.5 -28.5t28.5 -69.5t-28.5 -69.5t-69.5 -28.5t-70 28.5t-29 69.5z" />
<glyph unicode="&#xcc;" horiz-adv-x="317" d="M-152 1898l64 113q114 -111 281 -252q167 -146 276 -237l-4 -6q-114 85 -299 200q-253 152 -318 182zM20 0q74 98 74 424v586q0 326 -74 424h277q-74 -98 -74 -424v-586q0 -326 74 -424h-277z" />
<glyph unicode="&#xcd;" horiz-adv-x="317" d="M-152 1522q133 111 277 237q167 141 281 252l63 -113q-61 -28 -317 -182q-185 -115 -299 -200zM20 0q74 98 74 424v586q0 326 -74 424h277q-74 -98 -74 -424v-586q0 -326 74 -424h-277z" />
<glyph unicode="&#xce;" horiz-adv-x="317" d="M-203 1524q70 92 190 251.5t173 227.5q124 -157 362 -479l-4 -6q-67 75 -179 170.5t-179 130.5q-67 -34 -175.5 -127.5t-183.5 -173.5zM20 0q74 98 74 424v586q0 326 -74 424h277q-74 -98 -74 -424v-586q0 -326 74 -424h-277z" />
<glyph unicode="&#xcf;" horiz-adv-x="317" d="M-84 1671q0 41 28.5 69.5t69.5 28.5t70 -28.5t29 -69.5t-29 -69.5t-70 -28.5t-69.5 28.5t-28.5 69.5zM20 0q74 98 74 424v586q0 326 -74 424h277q-74 -98 -74 -424v-586q0 -326 74 -424h-277zM205 1671q0 41 28.5 69.5t69.5 28.5t69.5 -28.5t28.5 -69.5t-28.5 -69.5 t-69.5 -28.5t-69.5 28.5t-28.5 69.5z" />
<glyph unicode="&#xd0;" horiz-adv-x="1150" d="M-104 711v20h219v279q0 299 -95 424h297q373 0 593 -196.5t220 -518.5q0 -324 -217.5 -521.5t-584.5 -197.5h-308q95 125 95 424v285zM244 20h84q124 0 239 46t207 131.5t147.5 221t55.5 300.5q0 132 -37 245.5t-101 195t-148 139.5t-179.5 86t-194.5 28h-73v-682h368 v-72q-204 38 -368 46v-685z" />
<glyph unicode="&#xd1;" horiz-adv-x="1079" d="M14 1434h164l768 -1237v659q0 255 -36.5 394.5t-78.5 183.5h232q-35 -43 -64.5 -182.5t-29.5 -395.5v-856h-78l-754 1233v-655q0 -255 36.5 -394.5t78.5 -183.5h-232q35 43 65 182.5t30 395.5v692zM215 1561q19 36 28 52.5t29.5 47.5t38.5 46t45.5 27.5t57.5 12.5 q38 0 75 -16.5t62.5 -37t60.5 -37t70 -16.5q110 0 174 119l8 -4q-15 -28 -19.5 -37.5t-19.5 -35.5t-24 -36.5t-26 -29t-31.5 -26t-35 -14.5t-42.5 -7q-38 0 -75 16.5t-62.5 36.5t-61 36.5t-70.5 16.5q-110 0 -174 -119z" />
<glyph unicode="&#xd2;" d="M20 725q0 200 93.5 367t253.5 262.5t350 95.5q197 0 361 -96t259 -265.5t95 -375.5q0 -201 -93.5 -369t-253.5 -264t-350 -96q-197 0 -361 96.5t-259 267t-95 377.5zM143 834q0 -203 93.5 -388t255 -300t344.5 -115q107 0 197 45.5t150 123.5t93 181.5t33 220.5 q0 204 -94 389.5t-255 299.5t-344 114q-142 0 -251.5 -78t-165.5 -207t-56 -286zM399 1898l64 113q120 -117 280 -252q144 -126 277 -237l-4 -6q-114 85 -299 200q-253 152 -318 182z" />
<glyph unicode="&#xd3;" d="M20 725q0 200 93.5 367t253.5 262.5t350 95.5q197 0 361 -96t259 -265.5t95 -375.5q0 -201 -93.5 -369t-253.5 -264t-350 -96q-197 0 -361 96.5t-259 267t-95 377.5zM143 834q0 -203 93.5 -388t255 -300t344.5 -115q107 0 197 45.5t150 123.5t93 181.5t33 220.5 q0 204 -94 389.5t-255 299.5t-344 114q-142 0 -251.5 -78t-165.5 -207t-56 -286zM399 1522q133 111 277 237q160 135 280 252l64 -113q-65 -30 -318 -182q-185 -115 -299 -200z" />
<glyph unicode="&#xd4;" d="M20 725q0 200 93.5 367t253.5 262.5t350 95.5q197 0 361 -96t259 -265.5t95 -375.5q0 -201 -93.5 -369t-253.5 -264t-350 -96q-197 0 -361 96.5t-259 267t-95 377.5zM143 834q0 -203 93.5 -388t255 -300t344.5 -115q107 0 197 45.5t150 123.5t93 181.5t33 220.5 q0 204 -94 389.5t-255 299.5t-344 114q-142 0 -251.5 -78t-165.5 -207t-56 -286zM348 1524q70 92 190 251.5t173 227.5q124 -157 362 -479l-4 -6q-67 75 -179 170.5t-179 130.5q-67 -34 -175.5 -127.5t-183.5 -173.5z" />
<glyph unicode="&#xd5;" d="M20 725q0 200 93.5 367t253.5 262.5t350 95.5q197 0 361 -96t259 -265.5t95 -375.5q0 -201 -93.5 -369t-253.5 -264t-350 -96q-197 0 -361 96.5t-259 267t-95 377.5zM143 834q0 -203 93.5 -388t255 -300t344.5 -115q107 0 197 45.5t150 123.5t93 181.5t33 220.5 q0 204 -94 389.5t-255 299.5t-344 114q-142 0 -251.5 -78t-165.5 -207t-56 -286zM385 1561q19 36 28 52.5t29.5 47.5t38.5 46t45.5 27.5t57.5 12.5q38 0 75 -16.5t62.5 -37t60.5 -37t70 -16.5q110 0 174 119l8 -4q-15 -28 -19.5 -37.5t-19.5 -35.5t-24 -36.5t-26 -29 t-31.5 -26t-35 -14.5t-42.5 -7q-38 0 -75 16.5t-62.5 36.5t-61 36.5t-70.5 16.5q-110 0 -174 -119z" />
<glyph unicode="&#xd6;" d="M20 725q0 200 93.5 367t253.5 262.5t350 95.5q197 0 361 -96t259 -265.5t95 -375.5q0 -201 -93.5 -369t-253.5 -264t-350 -96q-197 0 -361 96.5t-259 267t-95 377.5zM143 834q0 -203 93.5 -388t255 -300t344.5 -115q107 0 197 45.5t150 123.5t93 181.5t33 220.5 q0 204 -94 389.5t-255 299.5t-344 114q-142 0 -251.5 -78t-165.5 -207t-56 -286zM469 1671q0 41 28.5 69.5t69.5 28.5t70 -28.5t29 -69.5t-29 -69.5t-70 -28.5t-69.5 28.5t-28.5 69.5zM758 1671q0 41 28.5 69.5t69.5 28.5t69.5 -28.5t28.5 -69.5t-28.5 -69.5t-69.5 -28.5 t-69.5 28.5t-28.5 69.5z" />
<glyph unicode="&#xd7;" horiz-adv-x="884" d="M102 326q161 146 328 313q-167 167 -328 313l27 27q146 -161 313 -328q177 178 314 328l26 -27q-150 -137 -327 -313q177 -177 327 -313l-26 -27q-137 151 -314 328q-167 -167 -313 -328z" />
<glyph unicode="&#xd8;" d="M-20 14q11 10 42 40.5t82 79.5t97 93q-86 98 -133.5 226t-47.5 272q0 200 93.5 367t253.5 262.5t350 95.5q147 0 277 -54.5t227 -154.5q105 115 204 227l45 -45q-69 -64 -221 -213q183 -205 183 -497q0 -201 -93.5 -369t-253.5 -264t-350 -96q-149 0 -280.5 56 t-229.5 159l-200 -232zM143 834q0 -134 43 -264.5t121 -239.5l424 411q229 224 391 394q-98 125 -230 197.5t-276 72.5q-142 0 -251.5 -78t-165.5 -207t-56 -286zM324 307q100 -128 232.5 -202t279.5 -74q107 0 197 45.5t150 123.5t93 181.5t33 220.5q0 135 -44 266.5 t-122 239.5l-426 -412q-213 -192 -393 -389z" />
<glyph unicode="&#xd9;" horiz-adv-x="1128" d="M16 1434h318q-94 -124 -94 -424v-414q0 -132 22 -233.5t57 -161.5t85 -97.5t98 -51t104 -13.5q186 0 286.5 153.5t100.5 430.5v387q0 153 -41.5 263t-105.5 161h266q-94 -124 -94 -424v-387q0 -108 -11.5 -196t-43.5 -173t-83.5 -142.5t-136 -92.5t-196.5 -35 q-196 0 -316 152t-120 433v441q0 299 -95 424zM262 1898l64 113q120 -117 280 -252q144 -126 277 -237l-4 -6q-114 85 -299 200q-253 152 -318 182z" />
<glyph unicode="&#xda;" horiz-adv-x="1128" d="M16 1434h318q-94 -124 -94 -424v-414q0 -132 22 -233.5t57 -161.5t85 -97.5t98 -51t104 -13.5q186 0 286.5 153.5t100.5 430.5v387q0 153 -41.5 263t-105.5 161h266q-94 -124 -94 -424v-387q0 -108 -11.5 -196t-43.5 -173t-83.5 -142.5t-136 -92.5t-196.5 -35 q-196 0 -316 152t-120 433v441q0 299 -95 424zM262 1522q133 111 277 237q160 135 280 252l64 -113q-65 -30 -318 -182q-185 -115 -299 -200z" />
<glyph unicode="&#xdb;" horiz-adv-x="1128" d="M16 1434h318q-94 -124 -94 -424v-414q0 -132 22 -233.5t57 -161.5t85 -97.5t98 -51t104 -13.5q186 0 286.5 153.5t100.5 430.5v387q0 153 -41.5 263t-105.5 161h266q-94 -124 -94 -424v-387q0 -108 -11.5 -196t-43.5 -173t-83.5 -142.5t-136 -92.5t-196.5 -35 q-196 0 -316 152t-120 433v441q0 299 -95 424zM211 1524q73 96 191.5 254t170.5 225q139 -176 363 -479l-4 -6q-67 75 -179.5 170.5t-179.5 130.5q-66 -34 -174 -127t-184 -174z" />
<glyph unicode="&#xdc;" horiz-adv-x="1128" d="M16 1434h318q-94 -124 -94 -424v-414q0 -132 22 -233.5t57 -161.5t85 -97.5t98 -51t104 -13.5q186 0 286.5 153.5t100.5 430.5v387q0 153 -41.5 263t-105.5 161h266q-94 -124 -94 -424v-387q0 -108 -11.5 -196t-43.5 -173t-83.5 -142.5t-136 -92.5t-196.5 -35 q-196 0 -316 152t-120 433v441q0 299 -95 424zM332 1671q0 41 28.5 69.5t69.5 28.5t69.5 -28.5t28.5 -69.5t-28.5 -69.5t-69.5 -28.5t-69.5 28.5t-28.5 69.5zM621 1671q0 41 28.5 69.5t69.5 28.5t69.5 -28.5t28.5 -69.5t-28.5 -69.5t-69.5 -28.5t-69.5 28.5t-28.5 69.5z" />
<glyph unicode="&#xdd;" horiz-adv-x="1167" d="M10 1434h256q-8 -19 -8 -56q0 -58 33 -131l348 -755q39 77 112 238.5t113 283.5q72 215 72 332q0 56 -16 88h237q-4 -5 -25.5 -26.5t-36 -41t-41 -59.5t-61 -107t-75.5 -158l-265 -583v-35q0 -299 95 -424h-322q91 122 94 410l-397 862q-56 120 -113 162zM289 1522 q109 91 276 237q167 141 281 252l63 -113q-61 -28 -317 -182q-185 -115 -299 -200z" />
<glyph unicode="&#xde;" horiz-adv-x="884" d="M20 1434h322q-31 -34 -57.5 -111t-36.5 -190h289q154 0 238.5 -58.5t84.5 -165.5q0 -69 -54 -141.5t-104 -112t-160 -117.5q-8 -6 -12.5 -9t-11 -8t-12.5 -9q-50 -36 -83.5 -63t-74.5 -69t-62.5 -87.5t-21.5 -93.5q0 -56 23.5 -112t46.5 -87h-307q92 147 92 424v584 q0 144 -28 257.5t-71 168.5zM92 43q56 139 166 277.5t248 226.5q109 70 162 163t53 171q0 41 -15 80.5t-46 74.5t-86 56.5t-128 21.5h-36q-140 0 -162 -131z" />
<glyph unicode="&#xdf;" horiz-adv-x="1267" d="M20 1434h506q184 0 276.5 -42t92.5 -137q0 -43 -28 -82.5t-61.5 -64t-74.5 -52t-55 -42.5q-62 -62 -62 -148q0 -33 16 -64t37.5 -54.5t62.5 -51.5t71.5 -45.5t83.5 -46.5q163 -86 221 -126q141 -100 141 -214q0 -125 -109.5 -202.5t-273.5 -77.5q-169 0 -340 59l-16 319 h6q140 -358 367 -358q103 0 177.5 41.5t74.5 124.5q0 22 -5 42t-17 39t-22.5 34t-33 32t-37 28.5t-44.5 28.5t-45.5 26t-51 28t-50.5 27q-51 28 -78 43.5t-69 42.5t-64 49.5t-46 53t-34 65t-10 73.5q0 30 7 58t15 46.5t25.5 43t26.5 34.5t31.5 33.5t27.5 28.5 q101 108 101 215q0 80 -62.5 126t-187.5 46h-35q-131 0 -178 -75t-47 -244v-670q0 -90 9.5 -166.5t23 -121.5t27 -77.5t22.5 -44.5l10 -12h-313q4 4 10 12.5t22 43.5t28 78.5t22 120.5t10 167v584q0 90 -10.5 167t-25 122.5t-29.5 78.5t-26 46z" />
<glyph unicode="&#xe0;" horiz-adv-x="970" d="M20 330q0 168 109 304.5t307 227.5q-42 -30 -83.5 -70t-88.5 -99t-76.5 -136t-29.5 -156q0 -154 76.5 -244t218.5 -91q77 -2 147.5 30.5t114.5 98.5q-216 634 -264 716q-23 41 -64.5 63t-86 21.5t-91.5 -12.5l-4 2q33 25 83.5 40t96.5 15q147 0 213 -155q11 -26 41 -103 t65 -171.5t67.5 -182t56.5 -153.5l24 -66q36 -91 62.5 -138t56.5 -71h-191l-59 178q-62 -98 -140 -145.5t-200 -48.5q-157 0 -259 96t-102 250zM113 1489l63 113q114 -111 281 -252q195 -170 276 -238l-4 -6q-121 91 -299 201q-256 154 -317 182z" />
<glyph unicode="&#xe1;" horiz-adv-x="970" d="M20 330q0 168 109 304.5t307 227.5q-42 -30 -83.5 -70t-88.5 -99t-76.5 -136t-29.5 -156q0 -154 76.5 -244t218.5 -91q77 -2 147.5 30.5t114.5 98.5q-216 634 -264 716q-23 41 -64.5 63t-86 21.5t-91.5 -12.5l-4 2q33 25 83.5 40t96.5 15q147 0 213 -155q11 -26 41 -103 t65 -171.5t67.5 -182t56.5 -153.5l24 -66q36 -91 62.5 -138t56.5 -71h-191l-59 178q-62 -98 -140 -145.5t-200 -48.5q-157 0 -259 96t-102 250zM113 1112q81 68 276 238q167 141 281 252l63 -113q-61 -28 -317 -182q-178 -110 -299 -201z" />
<glyph unicode="&#xe2;" horiz-adv-x="970" d="M20 330q0 168 109 304.5t307 227.5q-42 -30 -83.5 -70t-88.5 -99t-76.5 -136t-29.5 -156q0 -154 76.5 -244t218.5 -91q77 -2 147.5 30.5t114.5 98.5q-216 634 -264 716q-23 41 -64.5 63t-86 21.5t-91.5 -12.5l-4 2q33 25 83.5 40t96.5 15q147 0 213 -155q11 -26 41 -103 t65 -171.5t67.5 -182t56.5 -153.5l24 -66q36 -91 62.5 -138t56.5 -71h-191l-59 178q-62 -98 -140 -145.5t-200 -48.5q-157 0 -259 96t-102 250zM61 1114q70 92 190 251.5t173 227.5q124 -157 362 -479l-4 -6q-67 75 -179 170.5t-179 130.5q-66 -34 -174 -127t-184 -174z" />
<glyph unicode="&#xe3;" horiz-adv-x="970" d="M20 330q0 168 109 304.5t307 227.5q-42 -30 -83.5 -70t-88.5 -99t-76.5 -136t-29.5 -156q0 -154 76.5 -244t218.5 -91q77 -2 147.5 30.5t114.5 98.5q-216 634 -264 716q-23 41 -64.5 63t-86 21.5t-91.5 -12.5l-4 2q33 25 83.5 40t96.5 15q147 0 213 -155q11 -26 41 -103 t65 -171.5t67.5 -182t56.5 -153.5l24 -66q36 -91 62.5 -138t56.5 -71h-191l-59 178q-62 -98 -140 -145.5t-200 -48.5q-157 0 -259 96t-102 250zM98 1151q19 36 28 52.5t29.5 47.5t38.5 46t45.5 27.5t57.5 12.5q38 0 75 -16.5t62.5 -36.5t60.5 -36.5t70 -16.5q110 0 174 119 l9 -4q-14 -28 -19.5 -38t-20 -35t-24 -36.5t-26 -29.5t-31.5 -26.5t-35.5 -15t-42.5 -6.5q-38 0 -75 16.5t-62.5 37t-60.5 37t-70 16.5q-111 0 -175 -119z" />
<glyph unicode="&#xe4;" horiz-adv-x="970" d="M20 330q0 168 109 304.5t307 227.5q-42 -30 -83.5 -70t-88.5 -99t-76.5 -136t-29.5 -156q0 -154 76.5 -244t218.5 -91q77 -2 147.5 30.5t114.5 98.5q-216 634 -264 716q-23 41 -64.5 63t-86 21.5t-91.5 -12.5l-4 2q33 25 83.5 40t96.5 15q147 0 213 -155q11 -26 41 -103 t65 -171.5t67.5 -182t56.5 -153.5l24 -66q36 -91 62.5 -138t56.5 -71h-191l-59 178q-62 -98 -140 -145.5t-200 -48.5q-157 0 -259 96t-102 250zM182 1262q0 41 29 69.5t70 28.5t69.5 -28.5t28.5 -69.5t-28.5 -70t-69.5 -29t-70 29t-29 70zM471 1262q0 41 28.5 69.5 t69.5 28.5t70 -28.5t29 -69.5t-29 -70t-70 -29t-69.5 29t-28.5 70z" />
<glyph unicode="&#xe5;" horiz-adv-x="970" d="M20 330q0 168 109 304.5t307 227.5q-42 -30 -83.5 -70t-88.5 -99t-76.5 -136t-29.5 -156q0 -154 76.5 -244t218.5 -91q77 -2 147.5 30.5t114.5 98.5q-216 634 -264 716q-23 41 -64.5 63t-86 21.5t-91.5 -12.5l-4 2q33 25 83.5 40t96.5 15q147 0 213 -155q11 -26 41 -103 t65 -171.5t67.5 -182t56.5 -153.5l24 -66q36 -91 62.5 -138t56.5 -71h-191l-59 178q-62 -98 -140 -145.5t-200 -48.5q-157 0 -259 96t-102 250zM252 1282q0 71 50 120.5t122 49.5q70 0 120 -50t50 -120q0 -72 -49.5 -122t-120.5 -50q-72 0 -122 50t-50 122zM276 1280 q0 -61 43 -103t105 -42q58 0 101.5 42.5t43.5 102.5q0 62 -43.5 104.5t-101.5 42.5q-62 0 -105 -42t-43 -105z" />
<glyph unicode="&#xe6;" horiz-adv-x="1695" d="M20 330q0 168 109 304.5t307 227.5q-42 -30 -83.5 -70t-88.5 -99t-76.5 -136t-29.5 -156q0 -154 76.5 -244t218.5 -91q77 -2 153.5 33t122.5 112q-39 58 -59 119q-31 83 -84 231t-85.5 234t-49.5 116q-35 61 -105.5 79t-136.5 -7l-4 2q33 25 83.5 40t96.5 15 q147 0 213 -155q1 -2 76 -191q56 156 191.5 251t305.5 95q177 0 288.5 -109t111.5 -282h-789q-6 -46 -6 -98q0 -188 124 -310t300 -122q193 0 319.5 103.5t153.5 266.5h2q-1 -101 -43 -194t-111 -161.5t-164.5 -109t-199.5 -40.5q-129 0 -239.5 57.5t-182.5 157.5 q-114 -212 -354 -215q-157 0 -259 96t-102 250zM786 664h316q154 0 219 51t65 127q0 81 -64 130.5t-167 49.5q-135 0 -238.5 -97t-130.5 -261z" />
<glyph unicode="&#xe7;" horiz-adv-x="1073" d="M25 504q0 230 147.5 381.5t370.5 154.5q248 3 407 -100v-315q-48 173 -166 282.5t-262 106.5q-89 -1 -162 -40t-119 -102t-71 -142t-25 -165q0 -197 125 -323.5t312 -126.5q189 0 314.5 105t154.5 269h2q-2 -135 -70 -250.5t-184.5 -184t-253.5 -70.5l-15 -15 q-17 -17 -13.5 -28t28.5 -11q87 0 133.5 -35t46.5 -92q0 -43 -29.5 -83t-76.5 -68.5t-97 -49t-100 -32.5l-2 10q72 14 138.5 73.5t66.5 123.5q0 42 -26 66t-73 24q-74 0 -141 -45l-6 4l147 158q-211 5 -356 153t-145 367z" />
<glyph unicode="&#xe8;" horiz-adv-x="1079" d="M25 506q0 151 71.5 274t193 191.5t265.5 68.5q177 0 288 -109t111 -282h-790q-8 -44 -8 -102q0 -188 124 -310t300 -122q193 0 321.5 105.5t155.5 268.5h2q-1 -101 -43 -194t-111 -161.5t-164.5 -109t-199.5 -40.5q-141 0 -259 67.5t-187.5 187.5t-69.5 267zM168 670h336 q155 0 219.5 48.5t64.5 123.5q0 80 -71.5 128t-177.5 48q-133 0 -237 -94.5t-134 -253.5zM244 1489l63 113q114 -111 281 -252q195 -170 276 -238l-4 -6q-121 91 -299 201q-256 154 -317 182z" />
<glyph unicode="&#xe9;" horiz-adv-x="1079" d="M25 506q0 151 71.5 274t193 191.5t265.5 68.5q177 0 288 -109t111 -282h-790q-8 -44 -8 -102q0 -188 124 -310t300 -122q193 0 321.5 105.5t155.5 268.5h2q-1 -101 -43 -194t-111 -161.5t-164.5 -109t-199.5 -40.5q-141 0 -259 67.5t-187.5 187.5t-69.5 267zM168 670h336 q155 0 219.5 48.5t64.5 123.5q0 80 -71.5 128t-177.5 48q-133 0 -237 -94.5t-134 -253.5zM244 1112q81 68 276 238q167 141 281 252l63 -113q-61 -28 -317 -182q-178 -110 -299 -201z" />
<glyph unicode="&#xea;" horiz-adv-x="1079" d="M25 506q0 151 71.5 274t193 191.5t265.5 68.5q177 0 288 -109t111 -282h-790q-8 -44 -8 -102q0 -188 124 -310t300 -122q193 0 321.5 105.5t155.5 268.5h2q-1 -101 -43 -194t-111 -161.5t-164.5 -109t-199.5 -40.5q-141 0 -259 67.5t-187.5 187.5t-69.5 267zM168 670h336 q155 0 219.5 48.5t64.5 123.5q0 80 -71.5 128t-177.5 48q-133 0 -237 -94.5t-134 -253.5zM193 1114q73 96 191.5 254t170.5 225q139 -176 363 -479l-5 -6q-67 75 -179 170.5t-179 130.5q-66 -34 -174 -127t-184 -174z" />
<glyph unicode="&#xeb;" horiz-adv-x="1079" d="M25 506q0 151 71.5 274t193 191.5t265.5 68.5q177 0 288 -109t111 -282h-790q-8 -44 -8 -102q0 -188 124 -310t300 -122q193 0 321.5 105.5t155.5 268.5h2q-1 -101 -43 -194t-111 -161.5t-164.5 -109t-199.5 -40.5q-141 0 -259 67.5t-187.5 187.5t-69.5 267zM168 670h336 q155 0 219.5 48.5t64.5 123.5q0 80 -71.5 128t-177.5 48q-133 0 -237 -94.5t-134 -253.5zM313 1262q0 41 29 69.5t70 28.5t69.5 -28.5t28.5 -69.5t-28.5 -70t-69.5 -29t-70 29t-29 70zM602 1262q0 41 28.5 69.5t69.5 28.5t70 -28.5t29 -69.5t-29 -70t-70 -29t-69.5 29 t-28.5 70z" />
<glyph unicode="&#xec;" horiz-adv-x="346" d="M-168 1489l64 113q120 -117 280 -252q172 -150 277 -238l-4 -6q-121 91 -299 201q-253 152 -318 182zM18 924v8l218 108v-682q0 -136 26.5 -228.5t69.5 -129.5h-230l13 616q3 227 -97 308z" />
<glyph unicode="&#xed;" horiz-adv-x="346" d="M-168 1112q105 88 277 238q160 135 280 252l64 -113q-65 -30 -318 -182q-178 -110 -299 -201zM18 924v8l218 108v-682q0 -136 26.5 -228.5t69.5 -129.5h-230l13 616q3 227 -97 308z" />
<glyph unicode="&#xee;" horiz-adv-x="346" d="M-219 1114q73 96 191.5 254t170.5 225q139 -176 363 -479l-4 -6q-67 75 -179.5 170.5t-179.5 130.5q-66 -34 -174 -127t-184 -174zM18 924v8l218 108v-682q0 -136 26.5 -228.5t69.5 -129.5h-230l13 616q3 227 -97 308z" />
<glyph unicode="&#xef;" horiz-adv-x="346" d="M-100 1262q0 41 28.5 69.5t69.5 28.5t69.5 -28.5t28.5 -69.5t-28.5 -70t-69.5 -29t-69.5 29t-28.5 70zM18 924v8l218 108v-682q0 -136 26.5 -228.5t69.5 -129.5h-230l13 616q3 227 -97 308zM188 1262q0 41 29 69.5t70 28.5t69.5 -28.5t28.5 -69.5t-28.5 -70t-69.5 -29 t-70 29t-29 70z" />
<glyph unicode="&#xf0;" horiz-adv-x="1124" d="M25 520q0 108 40.5 205t108 166t159 109t189.5 40q205 0 355 -122q-93 255 -263 434q-253 -142 -313 -185l-33 66q80 31 322 143q-208 205 -445 205v6q311 0 543 -164q140 68 195 97l10 -19l-178 -96q175 -130 271.5 -338t96.5 -461q0 -118 -34.5 -228t-99 -198.5 t-168.5 -142t-232 -53.5q-142 0 -263 72.5t-191 196t-70 267.5zM156 604q0 -83 22.5 -168t64.5 -159.5t97 -133.5t126 -93t146 -34q88 0 155.5 41.5t106.5 113t58.5 157t19.5 182.5q0 183 -63 369q-77 59 -120 82q-113 59 -249 59q-90 0 -161 -36t-114.5 -95.5t-66 -132.5 t-22.5 -152z" />
<glyph unicode="&#xf1;" horiz-adv-x="1067" d="M18 924v8l218 108v-155q125 155 284 155q136 0 202.5 -87.5t106.5 -313.5l58 -320q41 -234 147 -319h-227l-102 610q-31 182 -88 272t-156 89q-69 -1 -120.5 -29.5t-104.5 -81.5v-502q0 -136 26.5 -228.5t69.5 -129.5h-230l13 616q3 227 -97 308zM164 1151q15 29 19.5 38 t19.5 35t24 36.5t26 29t31.5 26t35 14.5t42.5 7q38 0 75 -16.5t62.5 -36.5t61 -36.5t70.5 -16.5q110 0 174 119l8 -4q-14 -28 -19.5 -38t-20 -35t-24 -36.5t-26 -29.5t-31.5 -26.5t-35.5 -15t-42.5 -6.5q-38 0 -75 16.5t-62.5 37t-60.5 37t-70 16.5q-110 0 -174 -119z" />
<glyph unicode="&#xf2;" horiz-adv-x="1083" d="M25 520q0 144 69 264t185 188t253 68q141 0 262 -71.5t193 -195t72 -269.5q0 -144 -69 -264t-185.5 -188t-253.5 -68q-140 0 -261.5 72t-193 195.5t-71.5 268.5zM156 604q0 -138 61 -273.5t168.5 -225t228.5 -89.5q100 0 173 59t107 149t34 196q0 135 -60.5 270.5 t-168.5 226.5t-230 91q-76 0 -137 -34t-98.5 -91.5t-57.5 -129t-20 -149.5zM231 1489l64 113q120 -117 280 -252q172 -150 277 -238l-4 -6q-121 91 -299 201q-253 152 -318 182z" />
<glyph unicode="&#xf3;" horiz-adv-x="1083" d="M25 520q0 144 69 264t185 188t253 68q141 0 262 -71.5t193 -195t72 -269.5q0 -144 -69 -264t-185.5 -188t-253.5 -68q-140 0 -261.5 72t-193 195.5t-71.5 268.5zM156 604q0 -138 61 -273.5t168.5 -225t228.5 -89.5q100 0 173 59t107 149t34 196q0 135 -60.5 270.5 t-168.5 226.5t-230 91q-76 0 -137 -34t-98.5 -91.5t-57.5 -129t-20 -149.5zM221 1112q105 88 277 238q160 135 280 252l64 -113q-65 -30 -318 -182q-178 -110 -299 -201z" />
<glyph unicode="&#xf4;" horiz-adv-x="1083" d="M25 520q0 144 69 264t185 188t253 68q141 0 262 -71.5t193 -195t72 -269.5q0 -144 -69 -264t-185.5 -188t-253.5 -68q-140 0 -261.5 72t-193 195.5t-71.5 268.5zM156 604q0 -138 61 -273.5t168.5 -225t228.5 -89.5q100 0 173 59t107 149t34 196q0 135 -60.5 270.5 t-168.5 226.5t-230 91q-76 0 -137 -34t-98.5 -91.5t-57.5 -129t-20 -149.5zM170 1114q73 96 191.5 254t170.5 225q139 -176 363 -479l-4 -6q-67 75 -179.5 170.5t-179.5 130.5q-66 -34 -174 -127t-184 -174z" />
<glyph unicode="&#xf5;" horiz-adv-x="1083" d="M25 520q0 144 69 264t185 188t253 68q141 0 262 -71.5t193 -195t72 -269.5q0 -144 -69 -264t-185.5 -188t-253.5 -68q-140 0 -261.5 72t-193 195.5t-71.5 268.5zM156 604q0 -138 61 -273.5t168.5 -225t228.5 -89.5q100 0 173 59t107 149t34 196q0 135 -60.5 270.5 t-168.5 226.5t-230 91q-76 0 -137 -34t-98.5 -91.5t-57.5 -129t-20 -149.5zM207 1151q19 36 28 52.5t29.5 47.5t38.5 46t45.5 27.5t57.5 12.5q38 0 75 -16.5t62.5 -36.5t60.5 -36.5t70 -16.5q110 0 174 119l8 -4q-14 -28 -19.5 -38t-20 -35t-24 -36.5t-26 -29.5t-31.5 -26.5 t-35.5 -15t-42.5 -6.5q-38 0 -75 16.5t-62.5 37t-60.5 37t-70 16.5q-110 0 -174 -119z" />
<glyph unicode="&#xf6;" horiz-adv-x="1083" d="M25 520q0 144 69 264t185 188t253 68q141 0 262 -71.5t193 -195t72 -269.5q0 -144 -69 -264t-185.5 -188t-253.5 -68q-140 0 -261.5 72t-193 195.5t-71.5 268.5zM156 604q0 -138 61 -273.5t168.5 -225t228.5 -89.5q100 0 173 59t107 149t34 196q0 135 -60.5 270.5 t-168.5 226.5t-230 91q-76 0 -137 -34t-98.5 -91.5t-57.5 -129t-20 -149.5zM291 1262q0 41 28.5 69.5t69.5 28.5t69.5 -28.5t28.5 -69.5t-28.5 -70t-69.5 -29t-69.5 29t-28.5 70zM580 1262q0 41 28.5 69.5t69.5 28.5t69.5 -28.5t28.5 -69.5t-28.5 -70t-69.5 -29t-69.5 29 t-28.5 70z" />
<glyph unicode="&#xf7;" horiz-adv-x="1089" d="M102 621v36q305 -10 443 -10q137 0 442 10v-36q-305 10 -442 10q-138 0 -443 -10zM459 295q0 37 24.5 61.5t61.5 24.5t61.5 -24.5t24.5 -61.5t-24.5 -61.5t-61.5 -24.5t-61.5 24.5t-24.5 61.5zM459 983q0 37 24.5 61.5t61.5 24.5t61.5 -24.5t24.5 -61.5t-24.5 -61.5 t-61.5 -24.5t-61.5 24.5t-24.5 61.5z" />
<glyph unicode="&#xf8;" horiz-adv-x="1083" d="M-2 14q45 45 160 152q-133 152 -133 354q0 144 69 264t185 188t253 68q204 0 359 -145q34 37 69.5 76t55 61t24.5 27l43 -45q-5 -4 -25 -23t-61.5 -57.5t-74.5 -69.5q137 -157 137 -360q0 -144 -69 -264t-185.5 -188t-253.5 -68q-101 0 -195 39t-166 108q-35 -36 -70 -74 t-55 -60t-24 -26zM156 604q0 -179 100 -346q191 178 279 266q145 145 268 277q-66 95 -152.5 151t-181.5 56q-76 0 -137 -34t-98.5 -91.5t-57.5 -129t-20 -149.5zM276 225q66 -96 153.5 -152.5t184.5 -56.5q100 0 173 59t107 149t34 196q0 183 -105 352q-147 -137 -276 -266 q-131 -131 -271 -281z" />
<glyph unicode="&#xf9;" horiz-adv-x="993" d="M18 924v8l218 108v-628q0 -198 60 -278.5t181 -80.5q76 0 148.5 37.5t126.5 99.5l2 410q0 247 -95 324v8l218 108v-682q0 -134 29 -227t73 -131h-229l2 160q-61 -81 -159 -128.5t-190 -47.5q-148 0 -219 93t-71 308v215q0 247 -95 324zM176 1489l64 113 q120 -117 280 -252q172 -150 277 -238l-4 -6q-121 91 -299 201q-253 152 -318 182z" />
<glyph unicode="&#xfa;" horiz-adv-x="993" d="M18 924v8l218 108v-628q0 -198 60 -278.5t181 -80.5q76 0 148.5 37.5t126.5 99.5l2 410q0 247 -95 324v8l218 108v-682q0 -134 29 -227t73 -131h-229l2 160q-61 -81 -159 -128.5t-190 -47.5q-148 0 -219 93t-71 308v215q0 247 -95 324zM176 1112q105 88 277 238 q160 135 280 252l64 -113q-65 -30 -318 -182q-178 -110 -299 -201z" />
<glyph unicode="&#xfb;" horiz-adv-x="993" d="M18 924v8l218 108v-628q0 -198 60 -278.5t181 -80.5q76 0 148.5 37.5t126.5 99.5l2 410q0 247 -95 324v8l218 108v-682q0 -134 29 -227t73 -131h-229l2 160q-61 -81 -159 -128.5t-190 -47.5q-148 0 -219 93t-71 308v215q0 247 -95 324zM125 1114q73 96 191.5 254 t170.5 225q139 -176 363 -479l-4 -6q-67 75 -179.5 170.5t-179.5 130.5q-66 -34 -174 -127t-184 -174z" />
<glyph unicode="&#xfc;" horiz-adv-x="993" d="M18 924v8l218 108v-628q0 -198 60 -278.5t181 -80.5q76 0 148.5 37.5t126.5 99.5l2 410q0 247 -95 324v8l218 108v-682q0 -134 29 -227t73 -131h-229l2 160q-61 -81 -159 -128.5t-190 -47.5q-148 0 -219 93t-71 308v215q0 247 -95 324zM246 1262q0 41 28.5 69.5 t69.5 28.5t69.5 -28.5t28.5 -69.5t-28.5 -70t-69.5 -29t-69.5 29t-28.5 70zM535 1262q0 41 28.5 69.5t69.5 28.5t69.5 -28.5t28.5 -69.5t-28.5 -70t-69.5 -29t-69.5 29t-28.5 70z" />
<glyph unicode="&#xfd;" horiz-adv-x="946" d="M8 -315q297 98 449 354l-283 686q-56 135 -99 207t-67 84v8h258v-8q-16 -11 -16 -64q0 -65 35 -147l243 -602l203 485q31 71 31 174q0 92 -25 154v8h201v-8q-38 -35 -84 -116t-123 -265l-166 -397q-55 -131 -98 -224t-87 -166t-79.5 -120t-85.5 -90.5t-93 -73t-114 -70.5 v191zM172 1112q105 88 277 238q160 135 280 252l64 -113q-65 -30 -318 -182q-178 -110 -299 -201z" />
<glyph unicode="&#xfe;" horiz-adv-x="1001" d="M18 1319v8l218 109v-570q51 83 137 128.5t164 45.5q85 0 164 -36.5t140.5 -102.5t98.5 -166.5t37 -218.5q0 -130 -39 -235t-103 -168t-140 -96t-156 -33q-88 0 -169.5 39t-133.5 92v-150q0 -86 28 -177.5t68 -125.5h-230l13 1350q3 226 -97 307zM236 143q108 -90 235 -90 q48 0 97 15.5t97.5 50.5t85.5 86t60 129t23 172q0 107 -30 195t-81 145t-117.5 88t-140.5 31q-66 0 -128 -33t-101 -98v-691z" />
<glyph unicode="&#xff;" horiz-adv-x="946" d="M8 -315q297 98 449 354l-283 686q-56 135 -99 207t-67 84v8h258v-8q-16 -11 -16 -64q0 -65 35 -147l243 -602l203 485q31 71 31 174q0 92 -25 154v8h201v-8q-38 -35 -84 -116t-123 -265l-166 -397q-55 -131 -98 -224t-87 -166t-79.5 -120t-85.5 -90.5t-93 -73t-114 -70.5 v191zM242 1262q0 41 28.5 69.5t69.5 28.5t69.5 -28.5t28.5 -69.5t-28.5 -70t-69.5 -29t-69.5 29t-28.5 70zM530 1262q0 41 29 69.5t70 28.5t69.5 -28.5t28.5 -69.5t-28.5 -70t-69.5 -29t-70 29t-29 70z" />
<glyph unicode="&#x152;" horiz-adv-x="1781" d="M20 725q0 200 93.5 367t253.5 262.5t350 95.5q119 0 201.5 -8t179.5 -8h598l8 -217h-4q-63 81 -174 136.5t-209 55.5q-82 0 -131 -44t-49 -136q0 -49 17 -94t54.5 -87t110 -67t170.5 -25h121v-188h-2q-218 169 -463 244v-989q100 11 178 24t171.5 35t163.5 57t109 80 l-8 -219h-667q-38 0 -152 -8t-205 -8q-197 0 -361 96.5t-259 267t-95 377.5zM143 834q0 -203 93.5 -388t255 -300t344.5 -115q62 0 114 14q66 134 66 379v586q0 152 -27 258q-174 137 -373 137q-142 0 -251.5 -78t-165.5 -207t-56 -286z" />
<glyph unicode="&#x153;" horiz-adv-x="1982" d="M25 520q0 144 69 264t185 188t253 68q144 0 266.5 -74.5t192.5 -199.5q68 127 192.5 200.5t274.5 73.5q177 0 288.5 -109t111.5 -282h-791q-8 -44 -8 -102q0 -188 124 -310t300 -122q193 0 321.5 105.5t155.5 268.5h2q-1 -101 -43 -194t-111 -161.5t-164.5 -109 t-199.5 -40.5q-144 0 -264.5 70.5t-186.5 191.5q-67 -120 -185 -191t-257 -71q-140 0 -261.5 72t-193 195.5t-71.5 268.5zM156 604q0 -138 61 -273.5t168.5 -225t228.5 -89.5q100 0 173 59t107 149t34 196q0 135 -60.5 270.5t-168.5 226.5t-230 91q-76 0 -137 -34 t-98.5 -91.5t-57.5 -129t-20 -149.5zM1071 670h336q155 0 220 48.5t65 123.5q0 80 -72 128t-178 48q-133 0 -237 -94.5t-134 -253.5z" />
<glyph unicode="&#x178;" horiz-adv-x="1167" d="M10 1434h256q-8 -19 -8 -56q0 -58 33 -131l348 -755q39 77 112 238.5t113 283.5q72 215 72 332q0 56 -16 88h237q-4 -5 -25.5 -26.5t-36 -41t-41 -59.5t-61 -107t-75.5 -158l-265 -583v-35q0 -299 95 -424h-322q91 122 94 410l-397 862q-56 120 -113 162zM358 1671 q0 41 29 69.5t70 28.5t69.5 -28.5t28.5 -69.5t-28.5 -69.5t-69.5 -28.5t-70 28.5t-29 69.5zM647 1671q0 41 28.5 69.5t69.5 28.5t70 -28.5t29 -69.5t-29 -69.5t-70 -28.5t-69.5 28.5t-28.5 69.5z" />
<glyph unicode="&#x2c6;" horiz-adv-x="716" d="M-4 1098q73 96 191.5 254t170.5 225q139 -176 363 -479l-4 -6q-67 75 -179.5 170.5t-179.5 130.5q-66 -34 -174 -127t-184 -174z" />
<glyph unicode="&#x2dc;" horiz-adv-x="731" d="M41 1135q19 36 28 52.5t29.5 47.5t38.5 46t45.5 27.5t57.5 12.5q38 0 75 -16.5t62.5 -37t60.5 -37t70 -16.5q110 0 174 119l8 -4q-15 -28 -19.5 -37.5t-19.5 -35.5t-24 -36.5t-26 -29t-31.5 -26t-35 -14.5t-42.5 -7q-38 0 -75 16.5t-62.5 36.5t-61 36.5t-70.5 16.5 q-110 0 -174 -119z" />
<glyph unicode="&#x2000;" horiz-adv-x="1005" />
<glyph unicode="&#x2001;" horiz-adv-x="2011" />
<glyph unicode="&#x2002;" horiz-adv-x="1005" />
<glyph unicode="&#x2003;" horiz-adv-x="2011" />
<glyph unicode="&#x2004;" horiz-adv-x="670" />
<glyph unicode="&#x2005;" horiz-adv-x="502" />
<glyph unicode="&#x2006;" horiz-adv-x="335" />
<glyph unicode="&#x2007;" horiz-adv-x="335" />
<glyph unicode="&#x2008;" horiz-adv-x="251" />
<glyph unicode="&#x2009;" horiz-adv-x="402" />
<glyph unicode="&#x200a;" horiz-adv-x="111" />
<glyph unicode="&#x2010;" horiz-adv-x="991" d="M102 537v71q1 0 130 -9t264 -9t263.5 9t129.5 9v-71q-1 0 -129.5 10t-263.5 10t-264 -10t-130 -10z" />
<glyph unicode="&#x2011;" horiz-adv-x="991" d="M102 537v71q1 0 130 -9t264 -9t263.5 9t129.5 9v-71q-1 0 -129.5 10t-263.5 10t-264 -10t-130 -10z" />
<glyph unicode="&#x2012;" horiz-adv-x="991" d="M102 537v71q1 0 130 -9t264 -9t263.5 9t129.5 9v-71q-1 0 -129.5 10t-263.5 10t-264 -10t-130 -10z" />
<glyph unicode="&#x2013;" horiz-adv-x="1257" d="M102 537v71q13 0 89 -5t196.5 -10t241.5 -5t241.5 5t196 10t88.5 5v-71q-13 0 -88.5 5.5t-196 11t-241.5 5.5t-241.5 -5.5t-196.5 -11t-89 -5.5z" />
<glyph unicode="&#x2014;" horiz-adv-x="1957" d="M102 537v71q10 0 153.5 -5t351 -10t372.5 -5t372 5t350.5 10t153.5 5v-71q-10 0 -153.5 5.5t-350.5 11t-372 5.5t-372.5 -5.5t-351 -11t-153.5 -5.5z" />
<glyph unicode="&#x2018;" horiz-adv-x="337" d="M61 1171q0 102 61 192.5t154 129.5v-2q-68 -44 -120 -110t-52 -119q0 -16 4 -26.5t14.5 -15.5t17.5 -6t25 -3q3 0 5 -0.5t4 -0.5q41 -4 71.5 -29t30.5 -73q0 -40 -31 -71t-73 -31q-57 0 -84 49t-27 116z" />
<glyph unicode="&#x2019;" horiz-adv-x="337" d="M82 967v2q68 44 120 110t52 119q0 9 -2 16t-3 12t-7 8.5t-8 5.5t-11 4t-11 2.5t-14 1.5t-14 1q-41 3 -71.5 29t-30.5 74q0 40 31 71t73 31q57 0 84 -49.5t27 -116.5q0 -102 -61 -192t-154 -129z" />
<glyph unicode="&#x201a;" horiz-adv-x="327" d="M-49 -256q89 23 163 79.5t74 113.5q0 9 -2.5 14.5t-11 11t-15.5 8.5t-26 11q-30 12 -51 37t-21 59q0 43 31 73.5t74 30.5q44 0 72 -31t28 -81q0 -124 -96.5 -220.5t-218.5 -107.5v2z" />
<glyph unicode="&#x201c;" horiz-adv-x="643" d="M61 1171q0 102 61 192.5t154 129.5v-2q-68 -44 -120 -110t-52 -119q0 -16 4 -26.5t14.5 -15.5t17.5 -6t25 -3q3 0 5 -0.5t4 -0.5q41 -4 71.5 -29t30.5 -73q0 -40 -31 -71t-73 -31q-57 0 -84 49t-27 116zM367 1171q0 102 61 192.5t154 129.5v-2q-68 -44 -120 -110 t-52 -119q0 -7 1 -13t2 -10.5t4.5 -8.5t5 -6.5t7.5 -4.5t7.5 -3t9.5 -2t9.5 -1.5t11 -1.5t11.5 -1q41 -4 72 -29t31 -73q0 -40 -31.5 -71t-73.5 -31q-57 0 -83.5 49t-26.5 116z" />
<glyph unicode="&#x201d;" horiz-adv-x="643" d="M82 963v2q68 44 120 110t52 119q0 9 -2 16t-3 12t-7 8.5t-8 5.5t-11 4t-11 2.5t-14 1.5t-14 1q-41 3 -71.5 29t-30.5 74q0 40 31 71t73 31q57 0 84 -49.5t27 -116.5q0 -102 -61 -192t-154 -129zM387 963v2q68 44 120 110t52 119q0 9 -2 16t-3 12t-7 8.5t-8 5.5t-11 4 t-11 2.5t-14 1.5t-14 1q-41 3 -71.5 29t-30.5 74q0 40 31.5 71t73.5 31q39 0 64.5 -26t35.5 -62t10 -78q0 -102 -61 -192t-154 -129z" />
<glyph unicode="&#x201e;" horiz-adv-x="643" d="M-33 76q0 40 31.5 71t73.5 31q39 0 64.5 -26t35.5 -62t10 -78q0 -102 -61 -192t-154 -129v2q68 44 120 110t52 119q0 8 -1 14.5t-3.5 11.5t-4.5 8.5t-7.5 6t-7.5 4t-10 2.5t-10.5 1.5t-12 1.5t-12.5 1q-41 3 -72 29t-31 74zM272 76q0 40 31.5 71t73.5 31q39 0 64.5 -26 t35.5 -62t10 -78q0 -102 -61 -192t-154 -129v2q68 44 120 110t52 119q0 8 -1 14.5t-3.5 11.5t-4.5 8.5t-7.5 6t-7.5 4t-10 2.5t-10.5 1.5t-12 1.5t-12.5 1q-41 3 -72 29t-31 74z" />
<glyph unicode="&#x2022;" horiz-adv-x="342" d="M61 582q0 44 33.5 77t79.5 33t76.5 -32.5t30.5 -77.5q0 -44 -30.5 -76.5t-76.5 -32.5q-45 0 -79 33t-34 76z" />
<glyph unicode="&#x2026;" horiz-adv-x="921" d="M61 78q0 43 31 73.5t74 30.5q44 0 72 -30t28 -74q0 -42 -28.5 -72.5t-71.5 -30.5t-74 31t-31 72zM358 78q0 43 31 73.5t74 30.5q44 0 72 -30t28 -74q0 -42 -28.5 -72.5t-71.5 -30.5t-74 31t-31 72zM655 78q0 43 31 73.5t74 30.5q44 0 72 -30t28 -74q0 -42 -28.5 -72.5 t-71.5 -30.5t-74 31t-31 72z" />
<glyph unicode="&#x202f;" horiz-adv-x="402" />
<glyph unicode="&#x2039;" horiz-adv-x="501" d="M41 508q133 109 201 182q19 20 192 180h6q-83 -86 -137 -155.5t-137 -206.5q84 -136 137.5 -205.5t136.5 -157.5h-6q-28 27 -101 95t-91 86q-114 114 -201 182z" />
<glyph unicode="&#x203a;" horiz-adv-x="501" d="M61 145q84 89 138 158.5t137 204.5q-83 136 -137 205.5t-138 156.5h7q173 -160 192 -180q68 -73 201 -182q-87 -68 -201 -182q-18 -18 -91 -86t-101 -95h-7z" />
<glyph unicode="&#x205f;" horiz-adv-x="502" />
<glyph unicode="&#x20ac;" horiz-adv-x="1294" d="M-41 580v18h143q-4 54 -4 80q0 60 6 119h-145v18h150q17 119 64.5 222t115 178t152 128.5t178 80t190.5 26.5q106 0 227 -20.5t197 -59.5v-319h-2q-13 43 -20.5 67t-22 62t-26.5 60t-31.5 52t-40 47.5t-50 37t-62.5 29.5t-76 17t-93 7q-216 0 -374 -171.5t-193 -441.5 q127 3 268.5 7.5t227.5 8t98 3.5v-62q-12 0 -98.5 3.5t-229 8t-270.5 7.5q-7 -65 -7 -115q0 -10 5 -78q127 3 270.5 7.5t230 7.5t99.5 3v-61q-12 0 -98.5 3t-229.5 7.5t-270 7.5q16 -133 74 -244t138 -180.5t170.5 -108t178.5 -38.5q81 0 145.5 19.5t107 49t78.5 79 t56.5 94.5t44.5 110h2v-286q-170 -86 -434 -86q-124 0 -242 43.5t-212 120t-158.5 189t-82.5 243.5h-145z" />
<glyph unicode="&#x2122;" horiz-adv-x="1468" d="M20 1190l31 242h520l31 -242h-2q-33 138 -77.5 185t-151.5 46v-538q0 -50 5.5 -93t12.5 -68t14.5 -43t12.5 -25l6 -7h-221q2 2 5.5 7t12.5 24.5t15.5 43.5t12 67.5t5.5 93.5v538q-57 1 -93 -9.5t-62 -39.5t-42 -70t-32 -112h-3zM610 647q3 4 7.5 13.5t17.5 43.5 t23.5 74.5t21.5 110t16 147.5l21 310l-33 88h127l244 -625l235 625h133l-55 -70l29 -483q4 -75 17 -133.5t24 -79.5l10 -21h-211q49 74 41 234l-21 346q-55 -85 -102 -203l-98 -246v-131h-68l-260 672l-24 -369q-5 -80 5 -156t22 -112l13 -35h-135z" />
<glyph unicode="&#x25fc;" horiz-adv-x="1024" d="M0 0v1024h1024v-1024h-1024z" />
<glyph unicode="&#xfb01;" horiz-adv-x="917" d="M-10 950v15h448q-179 37 -313.5 144t-134.5 218q0 55 40 89t101 34q44 0 90.5 -17t110.5 -49t100 -47q104 -43 219 -43v-192q-87 26 -156.5 68t-109 83t-70.5 78.5t-57.5 60.5t-54.5 23q-60 0 -60 -92q0 -86 68.5 -171.5t172 -138t202.5 -52.5q118 0 221 79v-682 q0 -136 26.5 -228.5t69.5 -129.5h-229l12 639q5 253 -129 291q-72 20 -205 20v-592q0 -137 24.5 -229.5t67.5 -128.5h-225l12 723q1 47 -9.5 85t-25 61t-39 40t-43.5 24.5t-46.5 12t-39 4.5h-31.5h-7z" />
<glyph unicode="&#xfb02;" horiz-adv-x="915" d="M-10 1319q0 65 41 98t110 33q79 0 227 -39t222 -39q89 0 164 37l51 25v-1076q0 -82 10 -149t24 -104t28 -62.5t24 -34.5l10 -8h-229l12 985q1 72 -7 126t-18 85t-32.5 57.5t-36.5 37t-43 28.5q-56 34 -163 65t-165 31q-76 0 -76 -92q0 -91 68 -175t173 -133.5t212 -49.5 v-15h-250v-583q0 -86 9.5 -155.5t23 -107t27 -63t22.5 -33.5l10 -8h-225l12 723q1 47 -9 85t-24 61t-37.5 40t-41 24.5t-44.5 12t-38 4.5h-30h-7v15h448q-175 32 -312.5 141t-139.5 213z" />
<glyph unicode="&#xfb03;" horiz-adv-x="1374" d="M-10 950v15h448q-177 37 -312.5 144.5t-135.5 211.5q0 63 41.5 96t99.5 33q54 0 112.5 -20.5t121.5 -53t81 -39.5q4 50 44 81.5t98 31.5q44 0 90.5 -17t110.5 -49t100 -47q104 -43 219 -43v-192q-87 26 -156.5 68t-109 83t-71 78.5t-58 60.5t-54.5 23q-59 0 -59 -92 q0 -65 41 -131.5t104.5 -116.5t143 -82t153.5 -32q119 0 222 79v-682q0 -136 26.5 -228.5t69.5 -129.5h-230l13 639q5 253 -129 291q-72 20 -205 20v-592q0 -137 24.5 -229.5t67.5 -128.5h-225l12 723q1 47 -9.5 85t-25.5 61t-39.5 40t-43 24.5t-46.5 12t-39.5 4.5h-31.5h-7 h-94v-583q0 -86 9.5 -155.5t23 -107t27 -63t22.5 -33.5l10 -8h-225l12 723q1 60 -15.5 104t-40 67t-59.5 36.5t-63.5 16.5t-62.5 3zM143 1323q0 -80 41.5 -149t107 -113.5t144.5 -70t156 -25.5h303q-183 40 -348 168q-59 46 -119 103t-93.5 92.5t-68.5 61t-63 25.5 q-60 0 -60 -92z" />
<glyph unicode="&#xfb04;" horiz-adv-x="1378" d="M-10 950v15h448q-177 37 -312.5 144.5t-135.5 211.5q0 63 41.5 96t99.5 33q50 0 110 -21t124 -53t84 -39q6 57 49.5 85t105.5 28q79 0 227 -39t222 -39q89 0 164 37l51 25v-1076q0 -82 10 -149t24 -104t28 -62.5t24 -34.5l10 -8h-229l12 985q1 72 -7 126t-18 85 t-32.5 57.5t-36.5 37t-43 28.5q-56 35 -166 65.5t-174 30.5q-70 0 -70 -92q0 -80 41.5 -149t107 -113.5t144.5 -70t156 -25.5v-15h-240v-583q0 -86 9.5 -155.5t23 -107t27 -63t23.5 -33.5l9 -8h-225l12 723q1 58 -14 101.5t-37.5 66.5t-53.5 37t-55.5 18t-50.5 4h-125v-583 q0 -86 9.5 -155.5t23 -107t27 -63t22.5 -33.5l10 -8h-225l12 723q1 60 -15.5 104t-40 67t-59.5 36.5t-63.5 16.5t-62.5 3zM143 1323q0 -80 41.5 -149t107 -113.5t144.5 -70t156 -25.5h303q-112 24 -200 73t-214 152q-60 49 -119.5 111.5t-91 88t-67.5 25.5q-60 0 -60 -92z " />
</font>
</defs>
</svg>
